ffmpeg started on 2025-06-07 at 14:39:26
Report written to "D:\Convert\FFMetrics\reports\psnr_report-6.txt"
Log level: 32
Command line:
ffmpeg -hide_banner -nostdin -i "G:\\\xc0\xed\xe8\xec\xe5\\\xce\xed\xe3\xee\xe8\xed\xe3\xe8\\!_36_\xce\xf1\xe5\xed\xfc_2024\\DreamCast\\\xd1\xee\xe1\xeb\xe0\xe7\xed 2,5-\xec\xe5\xf0\xed\xee\xe3\xee \xe8\xe7\xec\xe5\xf0\xe5\xed\xe8\xff\\[DC] 2-5 Jigen no Ririsa - 01_Telegram_HEVC.mkv" -i "G:\\\xc0\xed\xe8\xec\xe5\\\xce\xed\xe3\xee\xe8\xed\xe3\xe8\\!_36_\xce\xf1\xe5\xed\xfc_2024\\DreamCast\\\xd1\xee\xe1\xeb\xe0\xe7\xed 2,5-\xec\xe5\xf0\xed\xee\xe3\xee \xe8\xe7\xec\xe5\xf0\xe5\xed\xe8\xff\\[DC] 2-5 Jigen no Ririsa - 01_Telegram.mp4" -lavfi "[0:v]settb=AVTB,setpts=PTS-STARTPTS,format=pix_fmts=yuv420p10,fps=24/1,scale=1920:1080:flags=bicubic[main];[1:v]settb=AVTB,setpts=PTS-STARTPTS,format=pix_fmts=yuv420p,fps=24/1,scale=1920:1080:flags=bicubic[ref];[main][ref]psnr=eof_action=endall:stats_file='D\\:/Convert/FFMetrics/logs/psnr_logfile-6.txt'" -f null -
Input #0, matroska,webm, from 'G:\Аниме\Онгоинги\!_36_Осень_2024\DreamCast\Соблазн 2,5-мерного измерения\[DC] 2-5 Jigen no Ririsa - 01_Telegram_HEVC.mkv':
  Metadata:
    COMPATIBLE_BRANDS: isomiso2avc1mp41
    MAJOR_BRAND     : isom
    MINOR_VERSION   : 512
    ENCODER         : Lavf61.7.100
  Duration: 00:24:09.13, start: 0.000000, bitrate: 1390 kb/s
  Stream #0:0: Video: hevc (Main 10), yuv420p10le(tv, bt709, progressive), 1920x1080 [SAR 1:1 DAR 16:9], 24 fps, 24 tbr, 1k tbn (default)
      Metadata:
        HANDLER_NAME    : VideoHandler
        VENDOR_ID       : [0][0][0][0]
        ENCODER         : Lavc61.19.100 libx265
        BPS             : 1193332
        DURATION        : 00:24:09.124666666
        NUMBER_OF_FRAMES: 34775
        NUMBER_OF_BYTES : 216160837
        _STATISTICS_WRITING_APP: mkvpropedit v66.0.0 ('Josie') 64-bit
        _STATISTICS_WRITING_DATE_UTC: 2025-06-04 09:21:03
        _STATISTICS_TAGS: BPS DURATION NUMBER_OF_FRAMES NUMBER_OF_BYTES
  Stream #0:1: Audio: aac (LC), 48000 Hz, stereo, fltp (default)
      Metadata:
        HANDLER_NAME    : SoundHandler
        VENDOR_ID       : [0][0][0][0]
        ENCODER         : Lavc61.19.100 aac
        BPS             : 193342
        DURATION        : 00:24:08.960000000
        NUMBER_OF_FRAMES: 67921
        NUMBER_OF_BYTES : 35018226
        _STATISTICS_WRITING_APP: mkvpropedit v66.0.0 ('Josie') 64-bit
        _STATISTICS_WRITING_DATE_UTC: 2025-06-04 09:21:03
        _STATISTICS_TAGS: BPS DURATION NUMBER_OF_FRAMES NUMBER_OF_BYTES
Input #1, mov,mp4,m4a,3gp,3g2,mj2, from 'G:\Аниме\Онгоинги\!_36_Осень_2024\DreamCast\Соблазн 2,5-мерного измерения\[DC] 2-5 Jigen no Ririsa - 01_Telegram.mp4':
  Metadata:
    major_brand     : isom
    minor_version   : 512
    compatible_brands: isomiso2avc1mp41
    encoder         : Lavf54.63.104
  Duration: 00:24:09.13, start: 0.000000, bitrate: 4647 kb/s
  Stream #1:0[0x1](und): Video: h264 (Main) (avc1 / 0x31637661), yuv420p(progressive), 1920x1080 [SAR 1:1 DAR 16:9], 4491 kb/s, 24 fps, 24 tbr, 12288 tbn (default)
      Metadata:
        handler_name    : VideoHandler
        vendor_id       : [0][0][0][0]
  Stream #1:1[0x2](und): Audio: aac (LC) (mp4a / 0x6134706D), 48000 Hz, stereo, fltp, 151 kb/s (default)
      Metadata:
        handler_name    : SoundHandler
        vendor_id       : [0][0][0][0]
Stream mapping:
  Stream #0:0 (hevc) -> settb:default
  Stream #1:0 (h264) -> settb:default
  psnr:default -> Stream #0:0 (wrapped_avframe)
  Stream #0:1 -> #0:1 (aac (native) -> pcm_s16le (native))
[swscaler @ 000001eea74cd640] No accelerated colorspace conversion found from yuv420p to bgr48le.
[swscaler @ 000001eea757cf00] No accelerated colorspace conversion found from yuv420p to bgr48le.
[swscaler @ 000001eea772cbc0] No accelerated colorspace conversion found from yuv420p to bgr48le.
[swscaler @ 000001eea78b3ac0] No accelerated colorspace conversion found from yuv420p to bgr48le.
[swscaler @ 000001ee9d7e4bc0] No accelerated colorspace conversion found from yuv420p to bgr48le.
[swscaler @ 000001eea7be3180] No accelerated colorspace conversion found from yuv420p to bgr48le.
[swscaler @ 000001eea7c7ce00] No accelerated colorspace conversion found from yuv420p to bgr48le.
[swscaler @ 000001eea07a6340] No accelerated colorspace conversion found from yuv420p to bgr48le.
[swscaler @ 000001eea7ebacc0] No accelerated colorspace conversion found from yuv420p to bgr48le.
[swscaler @ 000001eea0b93ec0] No accelerated colorspace conversion found from yuv420p to bgr48le.
[swscaler @ 000001eea812d140] No accelerated colorspace conversion found from yuv420p to bgr48le.
[swscaler @ 000001eea0f9e3c0] No accelerated colorspace conversion found from yuv420p to bgr48le.
[swscaler @ 000001eeb0546c80] No accelerated colorspace conversion found from yuv420p to bgr48le.
[swscaler @ 000001eeb0762d00] No accelerated colorspace conversion found from yuv420p to bgr48le.
[swscaler @ 000001eeb07d6040] No accelerated colorspace conversion found from yuv420p to bgr48le.
[swscaler @ 000001eeb09efd40] No accelerated colorspace conversion found from yuv420p to bgr48le.
Output #0, null, to 'pipe:':
  Metadata:
    COMPATIBLE_BRANDS: isomiso2avc1mp41
    MAJOR_BRAND     : isom
    MINOR_VERSION   : 512
    encoder         : Lavf61.7.100
  Stream #0:0: Video: wrapped_avframe, yuv420p10le(tv, bt709, progressive), 1920x1080 [SAR 1:1 DAR 16:9], q=2-31, 200 kb/s, 24 fps, 24 tbn
      Metadata:
        encoder         : Lavc61.19.100 wrapped_avframe
  Stream #0:1: Audio: pcm_s16le, 48000 Hz, stereo, s16, 1536 kb/s (default)
      Metadata:
        HANDLER_NAME    : SoundHandler
        VENDOR_ID       : [0][0][0][0]
        _STATISTICS_TAGS: BPS DURATION NUMBER_OF_FRAMES NUMBER_OF_BYTES
        BPS             : 193342
        DURATION        : 00:24:08.960000000
        NUMBER_OF_FRAMES: 67921
        NUMBER_OF_BYTES : 35018226
        _STATISTICS_WRITING_APP: mkvpropedit v66.0.0 ('Josie') 64-bit
        _STATISTICS_WRITING_DATE_UTC: 2025-06-04 09:21:03
        encoder         : Lavc61.19.100 pcm_s16le
frame=   31 fps=0.0 q=-0.0 size=N/A time=00:00:01.29 bitrate=N/A speed=2.49x    frame=   66 fps= 64 q=-0.0 size=N/A time=00:00:02.75 bitrate=N/A speed=2.65x    frame=  103 fps= 67 q=-0.0 size=N/A time=00:00:04.29 bitrate=N/A speed=2.78x    frame=  130 fps= 63 q=-0.0 size=N/A time=00:00:05.41 bitrate=N/A speed=2.62x    frame=  169 fps= 65 q=-0.0 size=N/A time=00:00:07.04 bitrate=N/A speed=2.72x    frame=  207 fps= 67 q=-0.0 size=N/A time=00:00:08.62 bitrate=N/A speed=2.79x    frame=  245 fps= 68 q=-0.0 size=N/A time=00:00:10.20 bitrate=N/A speed=2.82x    frame=  283 fps= 69 q=-0.0 size=N/A time=00:00:11.79 bitrate=N/A speed=2.86x    frame=  319 fps= 69 q=-0.0 size=N/A time=00:00:13.29 bitrate=N/A speed=2.86x    frame=  350 fps= 68 q=-0.0 size=N/A time=00:00:14.58 bitrate=N/A speed=2.83x    frame=  388 fps= 68 q=-0.0 size=N/A time=00:00:16.16 bitrate=N/A speed=2.85x    frame=  425 fps= 69 q=-0.0 size=N/A time=00:00:17.70 bitrate=N/A speed=2.86x    frame=  453 fps= 68 q=-0.0 size=N/A time=00:00:18.87 bitrate=N/A speed=2.82x    frame=  497 fps= 69 q=-0.0 size=N/A time=00:00:20.70 bitrate=N/A speed=2.87x    frame=  528 fps= 68 q=-0.0 size=N/A time=00:00:22.00 bitrate=N/A speed=2.84x    frame=  573 fps= 69 q=-0.0 size=N/A time=00:00:23.87 bitrate=N/A speed=2.89x    frame=  610 fps= 70 q=-0.0 size=N/A time=00:00:25.41 bitrate=N/A speed= 2.9x    frame=  638 fps= 69 q=-0.0 size=N/A time=00:00:26.58 bitrate=N/A speed=2.86x    frame=  674 fps= 69 q=-0.0 size=N/A time=00:00:28.08 bitrate=N/A speed=2.86x    frame=  709 fps= 69 q=-0.0 size=N/A time=00:00:29.54 bitrate=N/A speed=2.87x    frame=  753 fps= 70 q=-0.0 size=N/A time=00:00:31.37 bitrate=N/A speed= 2.9x    frame=  793 fps= 70 q=-0.0 size=N/A time=00:00:33.04 bitrate=N/A speed=2.91x    frame=  828 fps= 70 q=-0.0 size=N/A time=00:00:34.50 bitrate=N/A speed=2.91x    frame=  859 fps= 69 q=-0.0 size=N/A time=00:00:35.79 bitrate=N/A speed=2.89x    frame=  894 fps= 69 q=-0.0 size=N/A time=00:00:37.25 bitrate=N/A speed=2.89x    frame=  937 fps= 70 q=-0.0 size=N/A time=00:00:39.04 bitrate=N/A speed=2.91x    frame=  960 fps= 69 q=-0.0 size=N/A time=00:00:40.00 bitrate=N/A speed=2.87x    frame=  999 fps= 69 q=-0.0 size=N/A time=00:00:41.62 bitrate=N/A speed=2.88x    frame= 1042 fps= 70 q=-0.0 size=N/A time=00:00:43.41 bitrate=N/A speed= 2.9x    frame= 1069 fps= 69 q=-0.0 size=N/A time=00:00:44.54 bitrate=N/A speed=2.88x    frame= 1110 fps= 69 q=-0.0 size=N/A time=00:00:46.25 bitrate=N/A speed=2.89x    frame= 1147 fps= 69 q=-0.0 size=N/A time=00:00:47.79 bitrate=N/A speed= 2.9x    frame= 1180 fps= 69 q=-0.0 size=N/A time=00:00:49.16 bitrate=N/A speed=2.89x    frame= 1221 fps= 70 q=-0.0 size=N/A time=00:00:50.87 bitrate=N/A speed= 2.9x    frame= 1257 fps= 70 q=-0.0 size=N/A time=00:00:52.37 bitrate=N/A speed= 2.9x    frame= 1293 fps= 70 q=-0.0 size=N/A time=00:00:53.87 bitrate=N/A speed= 2.9x    frame= 1326 fps= 69 q=-0.0 size=N/A time=00:00:55.25 bitrate=N/A speed=2.89x    frame= 1364 fps= 70 q=-0.0 size=N/A time=00:00:56.83 bitrate=N/A speed= 2.9x    frame= 1396 fps= 69 q=-0.0 size=N/A time=00:00:58.16 bitrate=N/A speed=2.89x    frame= 1438 fps= 70 q=-0.0 size=N/A time=00:00:59.91 bitrate=N/A speed= 2.9x    frame= 1474 fps= 70 q=-0.0 size=N/A time=00:01:01.41 bitrate=N/A speed= 2.9x    frame= 1507 fps= 70 q=-0.0 size=N/A time=00:01:02.79 bitrate=N/A speed= 2.9x    frame= 1550 fps= 70 q=-0.0 size=N/A time=00:01:04.58 bitrate=N/A speed=2.91x    frame= 1585 fps= 70 q=-0.0 size=N/A time=00:01:06.04 bitrate=N/A speed=2.91x    frame= 1624 fps= 70 q=-0.0 size=N/A time=00:01:07.66 bitrate=N/A speed=2.91x    frame= 1660 fps= 70 q=-0.0 size=N/A time=00:01:09.16 bitrate=N/A speed=2.91x    frame= 1693 fps= 70 q=-0.0 size=N/A time=00:01:10.54 bitrate=N/A speed=2.91x    frame= 1733 fps= 70 q=-0.0 size=N/A time=00:01:12.20 bitrate=N/A speed=2.92x    frame= 1765 fps= 70 q=-0.0 size=N/A time=00:01:13.54 bitrate=N/A speed=2.91x    frame= 1806 fps= 70 q=-0.0 size=N/A time=00:01:15.25 bitrate=N/A speed=2.92x    frame= 1838 fps= 70 q=-0.0 size=N/A time=00:01:16.58 bitrate=N/A speed=2.91x    frame= 1871 fps= 70 q=-0.0 size=N/A time=00:01:17.95 bitrate=N/A speed= 2.9x    frame= 1910 fps= 70 q=-0.0 size=N/A time=00:01:19.58 bitrate=N/A speed=2.91x    frame= 1948 fps= 70 q=-0.0 size=N/A time=00:01:21.16 bitrate=N/A speed=2.91x    frame= 1980 fps= 70 q=-0.0 size=N/A time=00:01:22.50 bitrate=N/A speed=2.91x    frame= 2013 fps= 70 q=-0.0 size=N/A time=00:01:23.87 bitrate=N/A speed= 2.9x    frame= 2046 fps= 70 q=-0.0 size=N/A time=00:01:25.25 bitrate=N/A speed= 2.9x    frame= 2080 fps= 69 q=-0.0 size=N/A time=00:01:26.66 bitrate=N/A speed=2.89x    frame= 2106 fps= 69 q=-0.0 size=N/A time=00:01:27.75 bitrate=N/A speed=2.88x    frame= 2145 fps= 69 q=-0.0 size=N/A time=00:01:29.37 bitrate=N/A speed=2.89x    frame= 2181 fps= 69 q=-0.0 size=N/A time=00:01:30.87 bitrate=N/A speed=2.89x    frame= 2214 fps= 69 q=-0.0 size=N/A time=00:01:32.25 bitrate=N/A speed=2.88x    frame= 2249 fps= 69 q=-0.0 size=N/A time=00:01:33.70 bitrate=N/A speed=2.88x    frame= 2286 fps= 69 q=-0.0 size=N/A time=00:01:35.25 bitrate=N/A speed=2.88x    frame= 2323 fps= 69 q=-0.0 size=N/A time=00:01:36.79 bitrate=N/A speed=2.89x    frame= 2357 fps= 69 q=-0.0 size=N/A time=00:01:38.20 bitrate=N/A speed=2.88x    frame= 2389 fps= 69 q=-0.0 size=N/A time=00:01:39.54 bitrate=N/A speed=2.88x    frame= 2425 fps= 69 q=-0.0 size=N/A time=00:01:41.04 bitrate=N/A speed=2.88x    frame= 2464 fps= 69 q=-0.0 size=N/A time=00:01:42.66 bitrate=N/A speed=2.88x    frame= 2499 fps= 69 q=-0.0 size=N/A time=00:01:44.12 bitrate=N/A speed=2.88x    frame= 2532 fps= 69 q=-0.0 size=N/A time=00:01:45.50 bitrate=N/A speed=2.88x    frame= 2575 fps= 69 q=-0.0 size=N/A time=00:01:47.29 bitrate=N/A speed=2.89x    frame= 2611 fps= 69 q=-0.0 size=N/A time=00:01:48.79 bitrate=N/A speed=2.89x    frame= 2646 fps= 69 q=-0.0 size=N/A time=00:01:50.25 bitrate=N/A speed=2.89x    frame= 2684 fps= 69 q=-0.0 size=N/A time=00:01:51.83 bitrate=N/A speed=2.89x    frame= 2715 fps= 69 q=-0.0 size=N/A time=00:01:53.12 bitrate=N/A speed=2.88x    frame= 2744 fps= 69 q=-0.0 size=N/A time=00:01:54.33 bitrate=N/A speed=2.88x    frame= 2788 fps= 69 q=-0.0 size=N/A time=00:01:56.16 bitrate=N/A speed=2.89x    frame= 2825 fps= 69 q=-0.0 size=N/A time=00:01:57.70 bitrate=N/A speed=2.89x    frame= 2858 fps= 69 q=-0.0 size=N/A time=00:01:59.08 bitrate=N/A speed=2.88x    frame= 2897 fps= 69 q=-0.0 size=N/A time=00:02:00.70 bitrate=N/A speed=2.89x    frame= 2934 fps= 69 q=-0.0 size=N/A time=00:02:02.25 bitrate=N/A speed=2.89x    frame= 2968 fps= 69 q=-0.0 size=N/A time=00:02:03.66 bitrate=N/A speed=2.89x    frame= 3003 fps= 69 q=-0.0 size=N/A time=00:02:05.12 bitrate=N/A speed=2.89x    frame= 3039 fps= 69 q=-0.0 size=N/A time=00:02:06.62 bitrate=N/A speed=2.89x    frame= 3067 fps= 69 q=-0.0 size=N/A time=00:02:07.79 bitrate=N/A speed=2.88x    frame= 3112 fps= 69 q=-0.0 size=N/A time=00:02:09.66 bitrate=N/A speed=2.89x    frame= 3146 fps= 69 q=-0.0 size=N/A time=00:02:11.08 bitrate=N/A speed=2.89x    frame= 3182 fps= 69 q=-0.0 size=N/A time=00:02:12.58 bitrate=N/A speed=2.89x    frame= 3214 fps= 69 q=-0.0 size=N/A time=00:02:13.91 bitrate=N/A speed=2.88x    frame= 3257 fps= 69 q=-0.0 size=N/A time=00:02:15.70 bitrate=N/A speed=2.89x    frame= 3291 fps= 69 q=-0.0 size=N/A time=00:02:17.12 bitrate=N/A speed=2.89x    frame= 3326 fps= 69 q=-0.0 size=N/A time=00:02:18.58 bitrate=N/A speed=2.89x    frame= 3353 fps= 69 q=-0.0 size=N/A time=00:02:19.70 bitrate=N/A speed=2.88x    frame= 3386 fps= 69 q=-0.0 size=N/A time=00:02:21.08 bitrate=N/A speed=2.88x    frame= 3431 fps= 69 q=-0.0 size=N/A time=00:02:22.95 bitrate=N/A speed=2.89x    frame= 3454 fps= 69 q=-0.0 size=N/A time=00:02:23.91 bitrate=N/A speed=2.87x    frame= 3503 fps= 69 q=-0.0 size=N/A time=00:02:25.95 bitrate=N/A speed=2.89x    frame= 3534 fps= 69 q=-0.0 size=N/A time=00:02:27.25 bitrate=N/A speed=2.88x    frame= 3570 fps= 69 q=-0.0 size=N/A time=00:02:28.75 bitrate=N/A speed=2.88x    frame= 3613 fps= 69 q=-0.0 size=N/A time=00:02:30.54 bitrate=N/A speed=2.89x    frame= 3651 fps= 69 q=-0.0 size=N/A time=00:02:32.12 bitrate=N/A speed=2.89x    frame= 3690 fps= 69 q=-0.0 size=N/A time=00:02:33.75 bitrate=N/A speed=2.89x    frame= 3728 fps= 69 q=-0.0 size=N/A time=00:02:35.33 bitrate=N/A speed=2.89x    frame= 3765 fps= 69 q=-0.0 size=N/A time=00:02:36.87 bitrate=N/A speed= 2.9x    frame= 3803 fps= 70 q=-0.0 size=N/A time=00:02:38.45 bitrate=N/A speed= 2.9x    frame= 3841 fps= 70 q=-0.0 size=N/A time=00:02:40.04 bitrate=N/A speed= 2.9x    frame= 3880 fps= 70 q=-0.0 size=N/A time=00:02:41.66 bitrate=N/A speed= 2.9x    frame= 3916 fps= 70 q=-0.0 size=N/A time=00:02:43.16 bitrate=N/A speed= 2.9x    frame= 3953 fps= 70 q=-0.0 size=N/A time=00:02:44.70 bitrate=N/A speed= 2.9x    frame= 3991 fps= 70 q=-0.0 size=N/A time=00:02:46.29 bitrate=N/A speed= 2.9x    frame= 4030 fps= 70 q=-0.0 size=N/A time=00:02:47.91 bitrate=N/A speed= 2.9x    frame= 4063 fps= 70 q=-0.0 size=N/A time=00:02:49.29 bitrate=N/A speed= 2.9x    frame= 4101 fps= 70 q=-0.0 size=N/A time=00:02:50.87 bitrate=N/A speed= 2.9x    frame= 4130 fps= 70 q=-0.0 size=N/A time=00:02:52.08 bitrate=N/A speed= 2.9x    frame= 4176 fps= 70 q=-0.0 size=N/A time=00:02:54.00 bitrate=N/A speed=2.91x    frame= 4217 fps= 70 q=-0.0 size=N/A time=00:02:55.70 bitrate=N/A speed=2.91x    frame= 4253 fps= 70 q=-0.0 size=N/A time=00:02:57.20 bitrate=N/A speed=2.91x    frame= 4285 fps= 70 q=-0.0 size=N/A time=00:02:58.54 bitrate=N/A speed=2.91x    frame= 4331 fps= 70 q=-0.0 size=N/A time=00:03:00.45 bitrate=N/A speed=2.91x    frame= 4369 fps= 70 q=-0.0 size=N/A time=00:03:02.04 bitrate=N/A speed=2.92x    frame= 4407 fps= 70 q=-0.0 size=N/A time=00:03:03.62 bitrate=N/A speed=2.92x    frame= 4444 fps= 70 q=-0.0 size=N/A time=00:03:05.16 bitrate=N/A speed=2.92x    frame= 4481 fps= 70 q=-0.0 size=N/A time=00:03:06.70 bitrate=N/A speed=2.92x    frame= 4520 fps= 70 q=-0.0 size=N/A time=00:03:08.33 bitrate=N/A speed=2.92x    frame= 4560 fps= 70 q=-0.0 size=N/A time=00:03:10.00 bitrate=N/A speed=2.92x    frame= 4599 fps= 70 q=-0.0 size=N/A time=00:03:11.62 bitrate=N/A speed=2.92x    frame= 4636 fps= 70 q=-0.0 size=N/A time=00:03:13.16 bitrate=N/A speed=2.92x    frame= 4671 fps= 70 q=-0.0 size=N/A time=00:03:14.62 bitrate=N/A speed=2.92x    frame= 4702 fps= 70 q=-0.0 size=N/A time=00:03:15.91 bitrate=N/A speed=2.92x    frame= 4754 fps= 70 q=-0.0 size=N/A time=00:03:18.08 bitrate=N/A speed=2.93x    frame= 4788 fps= 70 q=-0.0 size=N/A time=00:03:19.50 bitrate=N/A speed=2.93x    frame= 4826 fps= 70 q=-0.0 size=N/A time=00:03:21.08 bitrate=N/A speed=2.93x    frame= 4863 fps= 70 q=-0.0 size=N/A time=00:03:22.62 bitrate=N/A speed=2.93x    frame= 4894 fps= 70 q=-0.0 size=N/A time=00:03:23.91 bitrate=N/A speed=2.93x    frame= 4930 fps= 70 q=-0.0 size=N/A time=00:03:25.41 bitrate=N/A speed=2.93x    frame= 4966 fps= 70 q=-0.0 size=N/A time=00:03:26.91 bitrate=N/A speed=2.93x    frame= 5001 fps= 70 q=-0.0 size=N/A time=00:03:28.37 bitrate=N/A speed=2.93x    frame= 5035 fps= 70 q=-0.0 size=N/A time=00:03:29.79 bitrate=N/A speed=2.92x    frame= 5071 fps= 70 q=-0.0 size=N/A time=00:03:31.29 bitrate=N/A speed=2.93x    frame= 5108 fps= 70 q=-0.0 size=N/A time=00:03:32.83 bitrate=N/A speed=2.93x    frame= 5144 fps= 70 q=-0.0 size=N/A time=00:03:34.33 bitrate=N/A speed=2.92x    frame= 5179 fps= 70 q=-0.0 size=N/A time=00:03:35.79 bitrate=N/A speed=2.92x    frame= 5210 fps= 70 q=-0.0 size=N/A time=00:03:37.08 bitrate=N/A speed=2.92x    frame= 5246 fps= 70 q=-0.0 size=N/A time=00:03:38.58 bitrate=N/A speed=2.92x    frame= 5288 fps= 70 q=-0.0 size=N/A time=00:03:40.33 bitrate=N/A speed=2.92x    frame= 5326 fps= 70 q=-0.0 size=N/A time=00:03:41.91 bitrate=N/A speed=2.93x    frame= 5352 fps= 70 q=-0.0 size=N/A time=00:03:43.00 bitrate=N/A speed=2.92x    frame= 5397 fps= 70 q=-0.0 size=N/A time=00:03:44.87 bitrate=N/A speed=2.92x    frame= 5434 fps= 70 q=-0.0 size=N/A time=00:03:46.41 bitrate=N/A speed=2.93x    frame= 5471 fps= 70 q=-0.0 size=N/A time=00:03:47.95 bitrate=N/A speed=2.93x    frame= 5508 fps= 70 q=-0.0 size=N/A time=00:03:49.50 bitrate=N/A speed=2.93x    frame= 5545 fps= 70 q=-0.0 size=N/A time=00:03:51.04 bitrate=N/A speed=2.93x    frame= 5575 fps= 70 q=-0.0 size=N/A time=00:03:52.29 bitrate=N/A speed=2.92x    frame= 5618 fps= 70 q=-0.0 size=N/A time=00:03:54.08 bitrate=N/A speed=2.93x    frame= 5654 fps= 70 q=-0.0 size=N/A time=00:03:55.58 bitrate=N/A speed=2.93x    frame= 5692 fps= 70 q=-0.0 size=N/A time=00:03:57.16 bitrate=N/A speed=2.93x    frame= 5721 fps= 70 q=-0.0 size=N/A time=00:03:58.37 bitrate=N/A speed=2.92x    frame= 5765 fps= 70 q=-0.0 size=N/A time=00:04:00.20 bitrate=N/A speed=2.93x    frame= 5804 fps= 70 q=-0.0 size=N/A time=00:04:01.83 bitrate=N/A speed=2.93x    frame= 5839 fps= 70 q=-0.0 size=N/A time=00:04:03.29 bitrate=N/A speed=2.93x    frame= 5877 fps= 70 q=-0.0 size=N/A time=00:04:04.87 bitrate=N/A speed=2.93x    frame= 5916 fps= 70 q=-0.0 size=N/A time=00:04:06.50 bitrate=N/A speed=2.93x    frame= 5955 fps= 70 q=-0.0 size=N/A time=00:04:08.12 bitrate=N/A speed=2.93x    frame= 5994 fps= 70 q=-0.0 size=N/A time=00:04:09.75 bitrate=N/A speed=2.93x    frame= 6031 fps= 70 q=-0.0 size=N/A time=00:04:11.29 bitrate=N/A speed=2.93x    frame= 6064 fps= 70 q=-0.0 size=N/A time=00:04:12.66 bitrate=N/A speed=2.93x    frame= 6106 fps= 70 q=-0.0 size=N/A time=00:04:14.41 bitrate=N/A speed=2.93x    frame= 6141 fps= 70 q=-0.0 size=N/A time=00:04:15.87 bitrate=N/A speed=2.93x    frame= 6181 fps= 70 q=-0.0 size=N/A time=00:04:17.54 bitrate=N/A speed=2.94x    frame= 6219 fps= 70 q=-0.0 size=N/A time=00:04:19.12 bitrate=N/A speed=2.94x    frame= 6249 fps= 70 q=-0.0 size=N/A time=00:04:20.37 bitrate=N/A speed=2.93x    frame= 6290 fps= 70 q=-0.0 size=N/A time=00:04:22.08 bitrate=N/A speed=2.94x    frame= 6327 fps= 70 q=-0.0 size=N/A time=00:04:23.62 bitrate=N/A speed=2.94x    frame= 6360 fps= 70 q=-0.0 size=N/A time=00:04:25.00 bitrate=N/A speed=2.93x    frame= 6400 fps= 70 q=-0.0 size=N/A time=00:04:26.66 bitrate=N/A speed=2.94x    frame= 6434 fps= 70 q=-0.0 size=N/A time=00:04:28.08 bitrate=N/A speed=2.94x    frame= 6470 fps= 70 q=-0.0 size=N/A time=00:04:29.58 bitrate=N/A speed=2.94x    frame= 6505 fps= 70 q=-0.0 size=N/A time=00:04:31.04 bitrate=N/A speed=2.93x    frame= 6544 fps= 70 q=-0.0 size=N/A time=00:04:32.66 bitrate=N/A speed=2.94x    frame= 6579 fps= 70 q=-0.0 size=N/A time=00:04:34.12 bitrate=N/A speed=2.93x    frame= 6613 fps= 70 q=-0.0 size=N/A time=00:04:35.54 bitrate=N/A speed=2.93x    frame= 6642 fps= 70 q=-0.0 size=N/A time=00:04:36.75 bitrate=N/A speed=2.93x    frame= 6685 fps= 70 q=-0.0 size=N/A time=00:04:38.54 bitrate=N/A speed=2.93x    frame= 6723 fps= 70 q=-0.0 size=N/A time=00:04:40.12 bitrate=N/A speed=2.93x    frame= 6759 fps= 70 q=-0.0 size=N/A time=00:04:41.62 bitrate=N/A speed=2.93x    frame= 6795 fps= 70 q=-0.0 size=N/A time=00:04:43.12 bitrate=N/A speed=2.93x    frame= 6831 fps= 70 q=-0.0 size=N/A time=00:04:44.62 bitrate=N/A speed=2.93x    frame= 6868 fps= 70 q=-0.0 size=N/A time=00:04:46.16 bitrate=N/A speed=2.93x    frame= 6905 fps= 70 q=-0.0 size=N/A time=00:04:47.70 bitrate=N/A speed=2.93x    frame= 6943 fps= 70 q=-0.0 size=N/A time=00:04:49.29 bitrate=N/A speed=2.94x    frame= 6983 fps= 70 q=-0.0 size=N/A time=00:04:50.95 bitrate=N/A speed=2.94x    frame= 7020 fps= 70 q=-0.0 size=N/A time=00:04:52.50 bitrate=N/A speed=2.94x    frame= 7051 fps= 70 q=-0.0 size=N/A time=00:04:53.79 bitrate=N/A speed=2.94x    frame= 7089 fps= 70 q=-0.0 size=N/A time=00:04:55.37 bitrate=N/A speed=2.94x    frame= 7126 fps= 70 q=-0.0 size=N/A time=00:04:56.91 bitrate=N/A speed=2.94x    frame= 7163 fps= 70 q=-0.0 size=N/A time=00:04:58.45 bitrate=N/A speed=2.94x    frame= 7194 fps= 70 q=-0.0 size=N/A time=00:04:59.75 bitrate=N/A speed=2.93x    frame= 7234 fps= 70 q=-0.0 size=N/A time=00:05:01.41 bitrate=N/A speed=2.94x    frame= 7271 fps= 70 q=-0.0 size=N/A time=00:05:02.95 bitrate=N/A speed=2.94x    frame= 7300 fps= 70 q=-0.0 size=N/A time=00:05:04.16 bitrate=N/A speed=2.93x    frame= 7335 fps= 70 q=-0.0 size=N/A time=00:05:05.62 bitrate=N/A speed=2.93x    frame= 7377 fps= 70 q=-0.0 size=N/A time=00:05:07.37 bitrate=N/A speed=2.93x    frame= 7418 fps= 70 q=-0.0 size=N/A time=00:05:09.08 bitrate=N/A speed=2.94x    frame= 7455 fps= 70 q=-0.0 size=N/A time=00:05:10.62 bitrate=N/A speed=2.94x    frame= 7491 fps= 70 q=-0.0 size=N/A time=00:05:12.12 bitrate=N/A speed=2.94x    frame= 7531 fps= 71 q=-0.0 size=N/A time=00:05:13.79 bitrate=N/A speed=2.94x    frame= 7571 fps= 71 q=-0.0 size=N/A time=00:05:15.45 bitrate=N/A speed=2.94x    frame= 7606 fps= 71 q=-0.0 size=N/A time=00:05:16.91 bitrate=N/A speed=2.94x    frame= 7645 fps= 71 q=-0.0 size=N/A time=00:05:18.54 bitrate=N/A speed=2.94x    frame= 7675 fps= 71 q=-0.0 size=N/A time=00:05:19.79 bitrate=N/A speed=2.94x    frame= 7720 fps= 71 q=-0.0 size=N/A time=00:05:21.66 bitrate=N/A speed=2.94x    frame= 7756 fps= 71 q=-0.0 size=N/A time=00:05:23.16 bitrate=N/A speed=2.94x    frame= 7792 fps= 71 q=-0.0 size=N/A time=00:05:24.66 bitrate=N/A speed=2.94x    frame= 7824 fps= 71 q=-0.0 size=N/A time=00:05:26.00 bitrate=N/A speed=2.94x    frame= 7862 fps= 71 q=-0.0 size=N/A time=00:05:27.58 bitrate=N/A speed=2.94x    frame= 7898 fps= 71 q=-0.0 size=N/A time=00:05:29.08 bitrate=N/A speed=2.94x    frame= 7935 fps= 71 q=-0.0 size=N/A time=00:05:30.62 bitrate=N/A speed=2.94x    frame= 7969 fps= 71 q=-0.0 size=N/A time=00:05:32.04 bitrate=N/A speed=2.94x    frame= 8006 fps= 71 q=-0.0 size=N/A time=00:05:33.58 bitrate=N/A speed=2.94x    frame= 8036 fps= 70 q=-0.0 size=N/A time=00:05:34.83 bitrate=N/A speed=2.94x    frame= 8082 fps= 71 q=-0.0 size=N/A time=00:05:36.75 bitrate=N/A speed=2.94x    frame= 8111 fps= 71 q=-0.0 size=N/A time=00:05:37.95 bitrate=N/A speed=2.94x    frame= 8157 fps= 71 q=-0.0 size=N/A time=00:05:39.87 bitrate=N/A speed=2.94x    frame= 8195 fps= 71 q=-0.0 size=N/A time=00:05:41.45 bitrate=N/A speed=2.94x    frame= 8233 fps= 71 q=-0.0 size=N/A time=00:05:43.04 bitrate=N/A speed=2.94x    frame= 8271 fps= 71 q=-0.0 size=N/A time=00:05:44.62 bitrate=N/A speed=2.94x    frame= 8309 fps= 71 q=-0.0 size=N/A time=00:05:46.20 bitrate=N/A speed=2.94x    frame= 8348 fps= 71 q=-0.0 size=N/A time=00:05:47.83 bitrate=N/A speed=2.94x    frame= 8382 fps= 71 q=-0.0 size=N/A time=00:05:49.25 bitrate=N/A speed=2.94x    frame= 8426 fps= 71 q=-0.0 size=N/A time=00:05:51.08 bitrate=N/A speed=2.95x    frame= 8463 fps= 71 q=-0.0 size=N/A time=00:05:52.62 bitrate=N/A speed=2.95x    frame= 8502 fps= 71 q=-0.0 size=N/A time=00:05:54.25 bitrate=N/A speed=2.95x    frame= 8539 fps= 71 q=-0.0 size=N/A time=00:05:55.79 bitrate=N/A speed=2.95x    frame= 8578 fps= 71 q=-0.0 size=N/A time=00:05:57.41 bitrate=N/A speed=2.95x    frame= 8615 fps= 71 q=-0.0 size=N/A time=00:05:58.95 bitrate=N/A speed=2.95x    frame= 8655 fps= 71 q=-0.0 size=N/A time=00:06:00.62 bitrate=N/A speed=2.95x    frame= 8692 fps= 71 q=-0.0 size=N/A time=00:06:02.16 bitrate=N/A speed=2.95x    frame= 8723 fps= 71 q=-0.0 size=N/A time=00:06:03.45 bitrate=N/A speed=2.95x    frame= 8768 fps= 71 q=-0.0 size=N/A time=00:06:05.33 bitrate=N/A speed=2.95x    frame= 8805 fps= 71 q=-0.0 size=N/A time=00:06:06.87 bitrate=N/A speed=2.95x    frame= 8845 fps= 71 q=-0.0 size=N/A time=00:06:08.54 bitrate=N/A speed=2.95x    frame= 8883 fps= 71 q=-0.0 size=N/A time=00:06:10.12 bitrate=N/A speed=2.95x    frame= 8922 fps= 71 q=-0.0 size=N/A time=00:06:11.75 bitrate=N/A speed=2.95x    frame= 8963 fps= 71 q=-0.0 size=N/A time=00:06:13.45 bitrate=N/A speed=2.95x    frame= 9001 fps= 71 q=-0.0 size=N/A time=00:06:15.04 bitrate=N/A speed=2.96x    frame= 9041 fps= 71 q=-0.0 size=N/A time=00:06:16.70 bitrate=N/A speed=2.96x    frame= 9078 fps= 71 q=-0.0 size=N/A time=00:06:18.25 bitrate=N/A speed=2.96x    frame= 9111 fps= 71 q=-0.0 size=N/A time=00:06:19.62 bitrate=N/A speed=2.96x    frame= 9156 fps= 71 q=-0.0 size=N/A time=00:06:21.50 bitrate=N/A speed=2.96x    frame= 9192 fps= 71 q=-0.0 size=N/A time=00:06:23.00 bitrate=N/A speed=2.96x    frame= 9232 fps= 71 q=-0.0 size=N/A time=00:06:24.66 bitrate=N/A speed=2.96x    frame= 9270 fps= 71 q=-0.0 size=N/A time=00:06:26.25 bitrate=N/A speed=2.96x    frame= 9307 fps= 71 q=-0.0 size=N/A time=00:06:27.79 bitrate=N/A speed=2.96x    frame= 9346 fps= 71 q=-0.0 size=N/A time=00:06:29.41 bitrate=N/A speed=2.96x    frame= 9379 fps= 71 q=-0.0 size=N/A time=00:06:30.79 bitrate=N/A speed=2.96x    frame= 9422 fps= 71 q=-0.0 size=N/A time=00:06:32.58 bitrate=N/A speed=2.96x    frame= 9461 fps= 71 q=-0.0 size=N/A time=00:06:34.20 bitrate=N/A speed=2.96x    frame= 9499 fps= 71 q=-0.0 size=N/A time=00:06:35.79 bitrate=N/A speed=2.96x    frame= 9532 fps= 71 q=-0.0 size=N/A time=00:06:37.16 bitrate=N/A speed=2.96x    frame= 9573 fps= 71 q=-0.0 size=N/A time=00:06:38.87 bitrate=N/A speed=2.96x    frame= 9611 fps= 71 q=-0.0 size=N/A time=00:06:40.45 bitrate=N/A speed=2.96x    frame= 9650 fps= 71 q=-0.0 size=N/A time=00:06:42.08 bitrate=N/A speed=2.96x    frame= 9688 fps= 71 q=-0.0 size=N/A time=00:06:43.66 bitrate=N/A speed=2.96x    frame= 9728 fps= 71 q=-0.0 size=N/A time=00:06:45.33 bitrate=N/A speed=2.96x    frame= 9761 fps= 71 q=-0.0 size=N/A time=00:06:46.70 bitrate=N/A speed=2.96x    frame= 9807 fps= 71 q=-0.0 size=N/A time=00:06:48.62 bitrate=N/A speed=2.97x    frame= 9844 fps= 71 q=-0.0 size=N/A time=00:06:50.16 bitrate=N/A speed=2.97x    frame= 9885 fps= 71 q=-0.0 size=N/A time=00:06:51.87 bitrate=N/A speed=2.97x    frame= 9922 fps= 71 q=-0.0 size=N/A time=00:06:53.41 bitrate=N/A speed=2.97x    frame= 9962 fps= 71 q=-0.0 size=N/A time=00:06:55.08 bitrate=N/A speed=2.97x    frame= 9996 fps= 71 q=-0.0 size=N/A time=00:06:56.50 bitrate=N/A speed=2.97x    frame=10041 fps= 71 q=-0.0 size=N/A time=00:06:58.37 bitrate=N/A speed=2.97x    frame=10075 fps= 71 q=-0.0 size=N/A time=00:06:59.79 bitrate=N/A speed=2.97x    frame=10118 fps= 71 q=-0.0 size=N/A time=00:07:01.58 bitrate=N/A speed=2.97x    frame=10154 fps= 71 q=-0.0 size=N/A time=00:07:03.08 bitrate=N/A speed=2.97x    frame=10195 fps= 71 q=-0.0 size=N/A time=00:07:04.79 bitrate=N/A speed=2.97x    frame=10234 fps= 71 q=-0.0 size=N/A time=00:07:06.41 bitrate=N/A speed=2.97x    frame=10268 fps= 71 q=-0.0 size=N/A time=00:07:07.83 bitrate=N/A speed=2.97x    frame=10313 fps= 71 q=-0.0 size=N/A time=00:07:09.70 bitrate=N/A speed=2.98x    frame=10352 fps= 71 q=-0.0 size=N/A time=00:07:11.33 bitrate=N/A speed=2.98x    frame=10391 fps= 71 q=-0.0 size=N/A time=00:07:12.95 bitrate=N/A speed=2.98x    frame=10424 fps= 71 q=-0.0 size=N/A time=00:07:14.33 bitrate=N/A speed=2.98x    frame=10468 fps= 71 q=-0.0 size=N/A time=00:07:16.16 bitrate=N/A speed=2.98x    frame=10507 fps= 71 q=-0.0 size=N/A time=00:07:17.79 bitrate=N/A speed=2.98x    frame=10543 fps= 71 q=-0.0 size=N/A time=00:07:19.29 bitrate=N/A speed=2.98x    frame=10583 fps= 71 q=-0.0 size=N/A time=00:07:20.95 bitrate=N/A speed=2.98x    frame=10623 fps= 72 q=-0.0 size=N/A time=00:07:22.62 bitrate=N/A speed=2.98x    frame=10660 fps= 72 q=-0.0 size=N/A time=00:07:24.16 bitrate=N/A speed=2.98x    frame=10698 fps= 72 q=-0.0 size=N/A time=00:07:25.75 bitrate=N/A speed=2.98x    frame=10738 fps= 72 q=-0.0 size=N/A time=00:07:27.41 bitrate=N/A speed=2.98x    frame=10776 fps= 72 q=-0.0 size=N/A time=00:07:29.00 bitrate=N/A speed=2.98x    frame=10811 fps= 72 q=-0.0 size=N/A time=00:07:30.45 bitrate=N/A speed=2.98x    frame=10854 fps= 72 q=-0.0 size=N/A time=00:07:32.25 bitrate=N/A speed=2.98x    frame=10892 fps= 72 q=-0.0 size=N/A time=00:07:33.83 bitrate=N/A speed=2.98x    frame=10930 fps= 72 q=-0.0 size=N/A time=00:07:35.41 bitrate=N/A speed=2.98x    frame=10970 fps= 72 q=-0.0 size=N/A time=00:07:37.08 bitrate=N/A speed=2.98x    frame=11007 fps= 72 q=-0.0 size=N/A time=00:07:38.62 bitrate=N/A speed=2.98x    frame=11045 fps= 72 q=-0.0 size=N/A time=00:07:40.20 bitrate=N/A speed=2.98x    frame=11078 fps= 72 q=-0.0 size=N/A time=00:07:41.58 bitrate=N/A speed=2.98x    frame=11123 fps= 72 q=-0.0 size=N/A time=00:07:43.45 bitrate=N/A speed=2.98x    frame=11161 fps= 72 q=-0.0 size=N/A time=00:07:45.04 bitrate=N/A speed=2.99x    frame=11200 fps= 72 q=-0.0 size=N/A time=00:07:46.66 bitrate=N/A speed=2.99x    frame=11237 fps= 72 q=-0.0 size=N/A time=00:07:48.20 bitrate=N/A speed=2.99x    frame=11278 fps= 72 q=-0.0 size=N/A time=00:07:49.91 bitrate=N/A speed=2.99x    frame=11317 fps= 72 q=-0.0 size=N/A time=00:07:51.54 bitrate=N/A speed=2.99x    frame=11356 fps= 72 q=-0.0 size=N/A time=00:07:53.16 bitrate=N/A speed=2.99x    frame=11396 fps= 72 q=-0.0 size=N/A time=00:07:54.83 bitrate=N/A speed=2.99x    frame=11435 fps= 72 q=-0.0 size=N/A time=00:07:56.45 bitrate=N/A speed=2.99x    frame=11474 fps= 72 q=-0.0 size=N/A time=00:07:58.08 bitrate=N/A speed=2.99x    frame=11512 fps= 72 q=-0.0 size=N/A time=00:07:59.66 bitrate=N/A speed=2.99x    frame=11552 fps= 72 q=-0.0 size=N/A time=00:08:01.33 bitrate=N/A speed=2.99x    frame=11587 fps= 72 q=-0.0 size=N/A time=00:08:02.79 bitrate=N/A speed=2.99x    frame=11628 fps= 72 q=-0.0 size=N/A time=00:08:04.50 bitrate=N/A speed=2.99x    frame=11665 fps= 72 q=-0.0 size=N/A time=00:08:06.04 bitrate=N/A speed=2.99x    frame=11695 fps= 72 q=-0.0 size=N/A time=00:08:07.29 bitrate=N/A speed=2.99x    frame=11745 fps= 72 q=-0.0 size=N/A time=00:08:09.37 bitrate=N/A speed=2.99x    frame=11778 fps= 72 q=-0.0 size=N/A time=00:08:10.75 bitrate=N/A speed=2.99x    frame=11822 fps= 72 q=-0.0 size=N/A time=00:08:12.58 bitrate=N/A speed=2.99x    frame=11858 fps= 72 q=-0.0 size=N/A time=00:08:14.08 bitrate=N/A speed=2.99x    frame=11898 fps= 72 q=-0.0 size=N/A time=00:08:15.75 bitrate=N/A speed=2.99x    frame=11937 fps= 72 q=-0.0 size=N/A time=00:08:17.37 bitrate=N/A speed=2.99x    frame=11975 fps= 72 q=-0.0 size=N/A time=00:08:18.95 bitrate=N/A speed=2.99x    frame=12013 fps= 72 q=-0.0 size=N/A time=00:08:20.54 bitrate=N/A speed=   3x    frame=12045 fps= 72 q=-0.0 size=N/A time=00:08:21.87 bitrate=N/A speed=2.99x    frame=12092 fps= 72 q=-0.0 size=N/A time=00:08:23.83 bitrate=N/A speed=   3x    frame=12127 fps= 72 q=-0.0 size=N/A time=00:08:25.29 bitrate=N/A speed=   3x    frame=12170 fps= 72 q=-0.0 size=N/A time=00:08:27.08 bitrate=N/A speed=   3x    frame=12208 fps= 72 q=-0.0 size=N/A time=00:08:28.66 bitrate=N/A speed=   3x    frame=12244 fps= 72 q=-0.0 size=N/A time=00:08:30.16 bitrate=N/A speed=   3x    frame=12285 fps= 72 q=-0.0 size=N/A time=00:08:31.87 bitrate=N/A speed=   3x    frame=12324 fps= 72 q=-0.0 size=N/A time=00:08:33.50 bitrate=N/A speed=   3x    frame=12349 fps= 72 q=-0.0 size=N/A time=00:08:34.54 bitrate=N/A speed=   3x    frame=12403 fps= 72 q=-0.0 size=N/A time=00:08:36.79 bitrate=N/A speed=   3x    frame=12440 fps= 72 q=-0.0 size=N/A time=00:08:38.33 bitrate=N/A speed=   3x    frame=12479 fps= 72 q=-0.0 size=N/A time=00:08:39.95 bitrate=N/A speed=   3x    frame=12519 fps= 72 q=-0.0 size=N/A time=00:08:41.62 bitrate=N/A speed=   3x    frame=12557 fps= 72 q=-0.0 size=N/A time=00:08:43.20 bitrate=N/A speed=   3x    frame=12597 fps= 72 q=-0.0 size=N/A time=00:08:44.87 bitrate=N/A speed=   3x    frame=12636 fps= 72 q=-0.0 size=N/A time=00:08:46.50 bitrate=N/A speed=   3x    frame=12668 fps= 72 q=-0.0 size=N/A time=00:08:47.83 bitrate=N/A speed=   3x    frame=12712 fps= 72 q=-0.0 size=N/A time=00:08:49.66 bitrate=N/A speed=   3x    frame=12751 fps= 72 q=-0.0 size=N/A time=00:08:51.29 bitrate=N/A speed=   3x    frame=12791 fps= 72 q=-0.0 size=N/A time=00:08:52.95 bitrate=N/A speed=   3x    frame=12829 fps= 72 q=-0.0 size=N/A time=00:08:54.54 bitrate=N/A speed=   3x    frame=12868 fps= 72 q=-0.0 size=N/A time=00:08:56.16 bitrate=N/A speed=   3x    frame=12907 fps= 72 q=-0.0 size=N/A time=00:08:57.79 bitrate=N/A speed=   3x    frame=12945 fps= 72 q=-0.0 size=N/A time=00:08:59.37 bitrate=N/A speed=   3x    frame=12985 fps= 72 q=-0.0 size=N/A time=00:09:01.04 bitrate=N/A speed=3.01x    frame=13022 fps= 72 q=-0.0 size=N/A time=00:09:02.58 bitrate=N/A speed=3.01x    frame=13056 fps= 72 q=-0.0 size=N/A time=00:09:04.00 bitrate=N/A speed=   3x    frame=13101 fps= 72 q=-0.0 size=N/A time=00:09:05.87 bitrate=N/A speed=3.01x    frame=13136 fps= 72 q=-0.0 size=N/A time=00:09:07.33 bitrate=N/A speed=3.01x    frame=13175 fps= 72 q=-0.0 size=N/A time=00:09:08.95 bitrate=N/A speed=3.01x    frame=13217 fps= 72 q=-0.0 size=N/A time=00:09:10.70 bitrate=N/A speed=3.01x    frame=13257 fps= 72 q=-0.0 size=N/A time=00:09:12.37 bitrate=N/A speed=3.01x    frame=13296 fps= 72 q=-0.0 size=N/A time=00:09:14.00 bitrate=N/A speed=3.01x    frame=13336 fps= 72 q=-0.0 size=N/A time=00:09:15.66 bitrate=N/A speed=3.01x    frame=13375 fps= 72 q=-0.0 size=N/A time=00:09:17.29 bitrate=N/A speed=3.01x    frame=13411 fps= 72 q=-0.0 size=N/A time=00:09:18.79 bitrate=N/A speed=3.01x    frame=13453 fps= 72 q=-0.0 size=N/A time=00:09:20.54 bitrate=N/A speed=3.01x    frame=13492 fps= 72 q=-0.0 size=N/A time=00:09:22.16 bitrate=N/A speed=3.01x    frame=13529 fps= 72 q=-0.0 size=N/A time=00:09:23.70 bitrate=N/A speed=3.01x    frame=13570 fps= 72 q=-0.0 size=N/A time=00:09:25.41 bitrate=N/A speed=3.01x    frame=13610 fps= 72 q=-0.0 size=N/A time=00:09:27.08 bitrate=N/A speed=3.01x    frame=13648 fps= 72 q=-0.0 size=N/A time=00:09:28.66 bitrate=N/A speed=3.01x    frame=13682 fps= 72 q=-0.0 size=N/A time=00:09:30.08 bitrate=N/A speed=3.01x    frame=13726 fps= 72 q=-0.0 size=N/A time=00:09:31.91 bitrate=N/A speed=3.01x    frame=13765 fps= 72 q=-0.0 size=N/A time=00:09:33.54 bitrate=N/A speed=3.01x    frame=13803 fps= 72 q=-0.0 size=N/A time=00:09:35.12 bitrate=N/A speed=3.01x    frame=13843 fps= 72 q=-0.0 size=N/A time=00:09:36.79 bitrate=N/A speed=3.01x    frame=13883 fps= 72 q=-0.0 size=N/A time=00:09:38.45 bitrate=N/A speed=3.01x    frame=13917 fps= 72 q=-0.0 size=N/A time=00:09:39.87 bitrate=N/A speed=3.01x    frame=13959 fps= 72 q=-0.0 size=N/A time=00:09:41.62 bitrate=N/A speed=3.02x    frame=13998 fps= 72 q=-0.0 size=N/A time=00:09:43.25 bitrate=N/A speed=3.02x    frame=14030 fps= 72 q=-0.0 size=N/A time=00:09:44.58 bitrate=N/A speed=3.01x    frame=14076 fps= 72 q=-0.0 size=N/A time=00:09:46.50 bitrate=N/A speed=3.02x    frame=14115 fps= 72 q=-0.0 size=N/A time=00:09:48.12 bitrate=N/A speed=3.02x    frame=14153 fps= 72 q=-0.0 size=N/A time=00:09:49.70 bitrate=N/A speed=3.02x    frame=14189 fps= 72 q=-0.0 size=N/A time=00:09:51.20 bitrate=N/A speed=3.02x    frame=14231 fps= 72 q=-0.0 size=N/A time=00:09:52.95 bitrate=N/A speed=3.02x    frame=14271 fps= 72 q=-0.0 size=N/A time=00:09:54.62 bitrate=N/A speed=3.02x    frame=14309 fps= 72 q=-0.0 size=N/A time=00:09:56.20 bitrate=N/A speed=3.02x    frame=14341 fps= 72 q=-0.0 size=N/A time=00:09:57.54 bitrate=N/A speed=3.02x    frame=14388 fps= 72 q=-0.0 size=N/A time=00:09:59.50 bitrate=N/A speed=3.02x    frame=14427 fps= 72 q=-0.0 size=N/A time=00:10:01.12 bitrate=N/A speed=3.02x    frame=14466 fps= 72 q=-0.0 size=N/A time=00:10:02.75 bitrate=N/A speed=3.02x    frame=14504 fps= 72 q=-0.0 size=N/A time=00:10:04.33 bitrate=N/A speed=3.02x    frame=14544 fps= 72 q=-0.0 size=N/A time=00:10:06.00 bitrate=N/A speed=3.02x    frame=14583 fps= 72 q=-0.0 size=N/A time=00:10:07.62 bitrate=N/A speed=3.02x    frame=14616 fps= 72 q=-0.0 size=N/A time=00:10:09.00 bitrate=N/A speed=3.02x    frame=14660 fps= 73 q=-0.0 size=N/A time=00:10:10.83 bitrate=N/A speed=3.02x    frame=14700 fps= 73 q=-0.0 size=N/A time=00:10:12.50 bitrate=N/A speed=3.02x    frame=14739 fps= 73 q=-0.0 size=N/A time=00:10:14.12 bitrate=N/A speed=3.02x    frame=14777 fps= 73 q=-0.0 size=N/A time=00:10:15.70 bitrate=N/A speed=3.02x    frame=14813 fps= 73 q=-0.0 size=N/A time=00:10:17.20 bitrate=N/A speed=3.02x    frame=14844 fps= 72 q=-0.0 size=N/A time=00:10:18.50 bitrate=N/A speed=3.02x    frame=14890 fps= 73 q=-0.0 size=N/A time=00:10:20.41 bitrate=N/A speed=3.02x    frame=14934 fps= 73 q=-0.0 size=N/A time=00:10:22.25 bitrate=N/A speed=3.02x    frame=14972 fps= 73 q=-0.0 size=N/A time=00:10:23.83 bitrate=N/A speed=3.02x    frame=15011 fps= 73 q=-0.0 size=N/A time=00:10:25.45 bitrate=N/A speed=3.02x    frame=15050 fps= 73 q=-0.0 size=N/A time=00:10:27.08 bitrate=N/A speed=3.02x    frame=15082 fps= 73 q=-0.0 size=N/A time=00:10:28.41 bitrate=N/A speed=3.02x    frame=15130 fps= 73 q=-0.0 size=N/A time=00:10:30.41 bitrate=N/A speed=3.03x    frame=15168 fps= 73 q=-0.0 size=N/A time=00:10:32.00 bitrate=N/A speed=3.03x    frame=15207 fps= 73 q=-0.0 size=N/A time=00:10:33.62 bitrate=N/A speed=3.03x    frame=15246 fps= 73 q=-0.0 size=N/A time=00:10:35.25 bitrate=N/A speed=3.03x    frame=15283 fps= 73 q=-0.0 size=N/A time=00:10:36.79 bitrate=N/A speed=3.03x    frame=15320 fps= 73 q=-0.0 size=N/A time=00:10:38.33 bitrate=N/A speed=3.03x    frame=15355 fps= 73 q=-0.0 size=N/A time=00:10:39.79 bitrate=N/A speed=3.03x    frame=15400 fps= 73 q=-0.0 size=N/A time=00:10:41.66 bitrate=N/A speed=3.03x    frame=15434 fps= 73 q=-0.0 size=N/A time=00:10:43.08 bitrate=N/A speed=3.03x    frame=15470 fps= 73 q=-0.0 size=N/A time=00:10:44.58 bitrate=N/A speed=3.03x    frame=15515 fps= 73 q=-0.0 size=N/A time=00:10:46.45 bitrate=N/A speed=3.03x    frame=15551 fps= 73 q=-0.0 size=N/A time=00:10:47.95 bitrate=N/A speed=3.03x    frame=15587 fps= 73 q=-0.0 size=N/A time=00:10:49.45 bitrate=N/A speed=3.03x    frame=15630 fps= 73 q=-0.0 size=N/A time=00:10:51.25 bitrate=N/A speed=3.03x    frame=15668 fps= 73 q=-0.0 size=N/A time=00:10:52.83 bitrate=N/A speed=3.03x    frame=15708 fps= 73 q=-0.0 size=N/A time=00:10:54.50 bitrate=N/A speed=3.03x    frame=15747 fps= 73 q=-0.0 size=N/A time=00:10:56.12 bitrate=N/A speed=3.03x    frame=15778 fps= 73 q=-0.0 size=N/A time=00:10:57.41 bitrate=N/A speed=3.03x    frame=15825 fps= 73 q=-0.0 size=N/A time=00:10:59.37 bitrate=N/A speed=3.03x    frame=15858 fps= 73 q=-0.0 size=N/A time=00:11:00.75 bitrate=N/A speed=3.03x    frame=15902 fps= 73 q=-0.0 size=N/A time=00:11:02.58 bitrate=N/A speed=3.03x    frame=15938 fps= 73 q=-0.0 size=N/A time=00:11:04.08 bitrate=N/A speed=3.03x    frame=15979 fps= 73 q=-0.0 size=N/A time=00:11:05.79 bitrate=N/A speed=3.03x    frame=16017 fps= 73 q=-0.0 size=N/A time=00:11:07.37 bitrate=N/A speed=3.03x    frame=16051 fps= 73 q=-0.0 size=N/A time=00:11:08.79 bitrate=N/A speed=3.03x    frame=16095 fps= 73 q=-0.0 size=N/A time=00:11:10.62 bitrate=N/A speed=3.03x    frame=16135 fps= 73 q=-0.0 size=N/A time=00:11:12.29 bitrate=N/A speed=3.03x    frame=16173 fps= 73 q=-0.0 size=N/A time=00:11:13.87 bitrate=N/A speed=3.03x    frame=16207 fps= 73 q=-0.0 size=N/A time=00:11:15.29 bitrate=N/A speed=3.03x    frame=16252 fps= 73 q=-0.0 size=N/A time=00:11:17.16 bitrate=N/A speed=3.03x    frame=16292 fps= 73 q=-0.0 size=N/A time=00:11:18.83 bitrate=N/A speed=3.03x    frame=16330 fps= 73 q=-0.0 size=N/A time=00:11:20.41 bitrate=N/A speed=3.03x    frame=16371 fps= 73 q=-0.0 size=N/A time=00:11:22.12 bitrate=N/A speed=3.03x    frame=16409 fps= 73 q=-0.0 size=N/A time=00:11:23.70 bitrate=N/A speed=3.03x    frame=16447 fps= 73 q=-0.0 size=N/A time=00:11:25.29 bitrate=N/A speed=3.03x    frame=16486 fps= 73 q=-0.0 size=N/A time=00:11:26.91 bitrate=N/A speed=3.03x    frame=16525 fps= 73 q=-0.0 size=N/A time=00:11:28.54 bitrate=N/A speed=3.03x    frame=16563 fps= 73 q=-0.0 size=N/A time=00:11:30.12 bitrate=N/A speed=3.03x    frame=16595 fps= 73 q=-0.0 size=N/A time=00:11:31.45 bitrate=N/A speed=3.03x    frame=16640 fps= 73 q=-0.0 size=N/A time=00:11:33.33 bitrate=N/A speed=3.03x    frame=16677 fps= 73 q=-0.0 size=N/A time=00:11:34.87 bitrate=N/A speed=3.03x    frame=16712 fps= 73 q=-0.0 size=N/A time=00:11:36.33 bitrate=N/A speed=3.03x    frame=16755 fps= 73 q=-0.0 size=N/A time=00:11:38.12 bitrate=N/A speed=3.03x    frame=16793 fps= 73 q=-0.0 size=N/A time=00:11:39.70 bitrate=N/A speed=3.03x    frame=16833 fps= 73 q=-0.0 size=N/A time=00:11:41.37 bitrate=N/A speed=3.04x    frame=16869 fps= 73 q=-0.0 size=N/A time=00:11:42.87 bitrate=N/A speed=3.03x    frame=16906 fps= 73 q=-0.0 size=N/A time=00:11:44.41 bitrate=N/A speed=3.03x    frame=16943 fps= 73 q=-0.0 size=N/A time=00:11:45.95 bitrate=N/A speed=3.03x    frame=16974 fps= 73 q=-0.0 size=N/A time=00:11:47.25 bitrate=N/A speed=3.03x    frame=17014 fps= 73 q=-0.0 size=N/A time=00:11:48.91 bitrate=N/A speed=3.03x    frame=17051 fps= 73 q=-0.0 size=N/A time=00:11:50.45 bitrate=N/A speed=3.03x    frame=17082 fps= 73 q=-0.0 size=N/A time=00:11:51.75 bitrate=N/A speed=3.03x    frame=17108 fps= 73 q=-0.0 size=N/A time=00:11:52.83 bitrate=N/A speed=3.03x    frame=17153 fps= 73 q=-0.0 size=N/A time=00:11:54.70 bitrate=N/A speed=3.03x    frame=17189 fps= 73 q=-0.0 size=N/A time=00:11:56.20 bitrate=N/A speed=3.03x    frame=17226 fps= 73 q=-0.0 size=N/A time=00:11:57.75 bitrate=N/A speed=3.03x    frame=17261 fps= 73 q=-0.0 size=N/A time=00:11:59.20 bitrate=N/A speed=3.03x    frame=17297 fps= 73 q=-0.0 size=N/A time=00:12:00.70 bitrate=N/A speed=3.03x    frame=17327 fps= 73 q=-0.0 size=N/A time=00:12:01.95 bitrate=N/A speed=3.03x    frame=17368 fps= 73 q=-0.0 size=N/A time=00:12:03.66 bitrate=N/A speed=3.03x    frame=17406 fps= 73 q=-0.0 size=N/A time=00:12:05.25 bitrate=N/A speed=3.03x    frame=17436 fps= 73 q=-0.0 size=N/A time=00:12:06.50 bitrate=N/A speed=3.03x    frame=17478 fps= 73 q=-0.0 size=N/A time=00:12:08.25 bitrate=N/A speed=3.03x    frame=17513 fps= 73 q=-0.0 size=N/A time=00:12:09.70 bitrate=N/A speed=3.03x    frame=17549 fps= 73 q=-0.0 size=N/A time=00:12:11.20 bitrate=N/A speed=3.03x    frame=17588 fps= 73 q=-0.0 size=N/A time=00:12:12.83 bitrate=N/A speed=3.03x    frame=17624 fps= 73 q=-0.0 size=N/A time=00:12:14.33 bitrate=N/A speed=3.03x    frame=17659 fps= 73 q=-0.0 size=N/A time=00:12:15.79 bitrate=N/A speed=3.03x    frame=17694 fps= 73 q=-0.0 size=N/A time=00:12:17.25 bitrate=N/A speed=3.03x    frame=17726 fps= 73 q=-0.0 size=N/A time=00:12:18.58 bitrate=N/A speed=3.03x    frame=17766 fps= 73 q=-0.0 size=N/A time=00:12:20.25 bitrate=N/A speed=3.03x    frame=17802 fps= 73 q=-0.0 size=N/A time=00:12:21.75 bitrate=N/A speed=3.03x    frame=17834 fps= 73 q=-0.0 size=N/A time=00:12:23.08 bitrate=N/A speed=3.03x    frame=17863 fps= 73 q=-0.0 size=N/A time=00:12:24.29 bitrate=N/A speed=3.02x    frame=17910 fps= 73 q=-0.0 size=N/A time=00:12:26.25 bitrate=N/A speed=3.03x    frame=17949 fps= 73 q=-0.0 size=N/A time=00:12:27.87 bitrate=N/A speed=3.03x    frame=17985 fps= 73 q=-0.0 size=N/A time=00:12:29.37 bitrate=N/A speed=3.03x    frame=18026 fps= 73 q=-0.0 size=N/A time=00:12:31.08 bitrate=N/A speed=3.03x    frame=18063 fps= 73 q=-0.0 size=N/A time=00:12:32.62 bitrate=N/A speed=3.03x    frame=18102 fps= 73 q=-0.0 size=N/A time=00:12:34.25 bitrate=N/A speed=3.03x    frame=18138 fps= 73 q=-0.0 size=N/A time=00:12:35.75 bitrate=N/A speed=3.03x    frame=18173 fps= 73 q=-0.0 size=N/A time=00:12:37.20 bitrate=N/A speed=3.03x    frame=18208 fps= 73 q=-0.0 size=N/A time=00:12:38.66 bitrate=N/A speed=3.03x    frame=18249 fps= 73 q=-0.0 size=N/A time=00:12:40.37 bitrate=N/A speed=3.03x    frame=18284 fps= 73 q=-0.0 size=N/A time=00:12:41.83 bitrate=N/A speed=3.03x    frame=18321 fps= 73 q=-0.0 size=N/A time=00:12:43.37 bitrate=N/A speed=3.03x    frame=18347 fps= 73 q=-0.0 size=N/A time=00:12:44.45 bitrate=N/A speed=3.02x    frame=18379 fps= 73 q=-0.0 size=N/A time=00:12:45.79 bitrate=N/A speed=3.02x    frame=18426 fps= 73 q=-0.0 size=N/A time=00:12:47.75 bitrate=N/A speed=3.03x    frame=18464 fps= 73 q=-0.0 size=N/A time=00:12:49.33 bitrate=N/A speed=3.03x    frame=18500 fps= 73 q=-0.0 size=N/A time=00:12:50.83 bitrate=N/A speed=3.03x    frame=18528 fps= 73 q=-0.0 size=N/A time=00:12:52.00 bitrate=N/A speed=3.02x    frame=18571 fps= 73 q=-0.0 size=N/A time=00:12:53.79 bitrate=N/A speed=3.02x    frame=18609 fps= 73 q=-0.0 size=N/A time=00:12:55.37 bitrate=N/A speed=3.02x    frame=18648 fps= 73 q=-0.0 size=N/A time=00:12:57.00 bitrate=N/A speed=3.02x    frame=18686 fps= 73 q=-0.0 size=N/A time=00:12:58.58 bitrate=N/A speed=3.02x    frame=18721 fps= 73 q=-0.0 size=N/A time=00:13:00.04 bitrate=N/A speed=3.02x    frame=18750 fps= 73 q=-0.0 size=N/A time=00:13:01.25 bitrate=N/A speed=3.02x    frame=18786 fps= 73 q=-0.0 size=N/A time=00:13:02.75 bitrate=N/A speed=3.02x    frame=18828 fps= 73 q=-0.0 size=N/A time=00:13:04.50 bitrate=N/A speed=3.02x    frame=18867 fps= 73 q=-0.0 size=N/A time=00:13:06.12 bitrate=N/A speed=3.02x    frame=18898 fps= 73 q=-0.0 size=N/A time=00:13:07.41 bitrate=N/A speed=3.02x    frame=18940 fps= 73 q=-0.0 size=N/A time=00:13:09.16 bitrate=N/A speed=3.02x    frame=18977 fps= 73 q=-0.0 size=N/A time=00:13:10.70 bitrate=N/A speed=3.02x    frame=19014 fps= 73 q=-0.0 size=N/A time=00:13:12.25 bitrate=N/A speed=3.02x    frame=19051 fps= 73 q=-0.0 size=N/A time=00:13:13.79 bitrate=N/A speed=3.02x    frame=19085 fps= 73 q=-0.0 size=N/A time=00:13:15.20 bitrate=N/A speed=3.02x    frame=19123 fps= 73 q=-0.0 size=N/A time=00:13:16.79 bitrate=N/A speed=3.02x    frame=19160 fps= 73 q=-0.0 size=N/A time=00:13:18.33 bitrate=N/A speed=3.02x    frame=19193 fps= 73 q=-0.0 size=N/A time=00:13:19.70 bitrate=N/A speed=3.02x    frame=19228 fps= 73 q=-0.0 size=N/A time=00:13:21.16 bitrate=N/A speed=3.02x    frame=19268 fps= 73 q=-0.0 size=N/A time=00:13:22.83 bitrate=N/A speed=3.02x    frame=19303 fps= 73 q=-0.0 size=N/A time=00:13:24.29 bitrate=N/A speed=3.02x    frame=19337 fps= 73 q=-0.0 size=N/A time=00:13:25.70 bitrate=N/A speed=3.02x    frame=19379 fps= 73 q=-0.0 size=N/A time=00:13:27.45 bitrate=N/A speed=3.02x    frame=19417 fps= 73 q=-0.0 size=N/A time=00:13:29.04 bitrate=N/A speed=3.02x    frame=19442 fps= 72 q=-0.0 size=N/A time=00:13:30.08 bitrate=N/A speed=3.02x    frame=19487 fps= 73 q=-0.0 size=N/A time=00:13:31.95 bitrate=N/A speed=3.02x    frame=19533 fps= 73 q=-0.0 size=N/A time=00:13:33.87 bitrate=N/A speed=3.02x    frame=19568 fps= 73 q=-0.0 size=N/A time=00:13:35.33 bitrate=N/A speed=3.02x    frame=19609 fps= 73 q=-0.0 size=N/A time=00:13:37.04 bitrate=N/A speed=3.02x    frame=19643 fps= 73 q=-0.0 size=N/A time=00:13:38.45 bitrate=N/A speed=3.02x    frame=19684 fps= 73 q=-0.0 size=N/A time=00:13:40.16 bitrate=N/A speed=3.02x    frame=19714 fps= 73 q=-0.0 size=N/A time=00:13:41.41 bitrate=N/A speed=3.02x    frame=19754 fps= 73 q=-0.0 size=N/A time=00:13:43.08 bitrate=N/A speed=3.02x    frame=19787 fps= 73 q=-0.0 size=N/A time=00:13:44.45 bitrate=N/A speed=3.02x    frame=19825 fps= 73 q=-0.0 size=N/A time=00:13:46.04 bitrate=N/A speed=3.02x    frame=19859 fps= 73 q=-0.0 size=N/A time=00:13:47.45 bitrate=N/A speed=3.02x    frame=19895 fps= 73 q=-0.0 size=N/A time=00:13:48.95 bitrate=N/A speed=3.02x    frame=19937 fps= 73 q=-0.0 size=N/A time=00:13:50.70 bitrate=N/A speed=3.02x    frame=19976 fps= 73 q=-0.0 size=N/A time=00:13:52.33 bitrate=N/A speed=3.02x    frame=20014 fps= 73 q=-0.0 size=N/A time=00:13:53.91 bitrate=N/A speed=3.02x    frame=20051 fps= 73 q=-0.0 size=N/A time=00:13:55.45 bitrate=N/A speed=3.02x    frame=20089 fps= 73 q=-0.0 size=N/A time=00:13:57.04 bitrate=N/A speed=3.02x    frame=20118 fps= 72 q=-0.0 size=N/A time=00:13:58.25 bitrate=N/A speed=3.02x    frame=20161 fps= 73 q=-0.0 size=N/A time=00:14:00.04 bitrate=N/A speed=3.02x    frame=20203 fps= 73 q=-0.0 size=N/A time=00:14:01.79 bitrate=N/A speed=3.02x    frame=20241 fps= 73 q=-0.0 size=N/A time=00:14:03.37 bitrate=N/A speed=3.02x    frame=20282 fps= 73 q=-0.0 size=N/A time=00:14:05.08 bitrate=N/A speed=3.02x    frame=20315 fps= 73 q=-0.0 size=N/A time=00:14:06.45 bitrate=N/A speed=3.02x    frame=20360 fps= 73 q=-0.0 size=N/A time=00:14:08.33 bitrate=N/A speed=3.02x    frame=20399 fps= 73 q=-0.0 size=N/A time=00:14:09.95 bitrate=N/A speed=3.02x    frame=20438 fps= 73 q=-0.0 size=N/A time=00:14:11.58 bitrate=N/A speed=3.02x    frame=20474 fps= 73 q=-0.0 size=N/A time=00:14:13.08 bitrate=N/A speed=3.02x    frame=20506 fps= 73 q=-0.0 size=N/A time=00:14:14.41 bitrate=N/A speed=3.02x    frame=20544 fps= 73 q=-0.0 size=N/A time=00:14:16.00 bitrate=N/A speed=3.02x    frame=20577 fps= 73 q=-0.0 size=N/A time=00:14:17.37 bitrate=N/A speed=3.02x    frame=20617 fps= 73 q=-0.0 size=N/A time=00:14:19.04 bitrate=N/A speed=3.02x    frame=20653 fps= 73 q=-0.0 size=N/A time=00:14:20.54 bitrate=N/A speed=3.02x    frame=20690 fps= 73 q=-0.0 size=N/A time=00:14:22.08 bitrate=N/A speed=3.02x    frame=20721 fps= 73 q=-0.0 size=N/A time=00:14:23.37 bitrate=N/A speed=3.02x    frame=20764 fps= 73 q=-0.0 size=N/A time=00:14:25.16 bitrate=N/A speed=3.02x    frame=20801 fps= 73 q=-0.0 size=N/A time=00:14:26.70 bitrate=N/A speed=3.02x    frame=20840 fps= 73 q=-0.0 size=N/A time=00:14:28.33 bitrate=N/A speed=3.02x    frame=20875 fps= 73 q=-0.0 size=N/A time=00:14:29.79 bitrate=N/A speed=3.02x    frame=20899 fps= 72 q=-0.0 size=N/A time=00:14:30.79 bitrate=N/A speed=3.02x    frame=20947 fps= 73 q=-0.0 size=N/A time=00:14:32.79 bitrate=N/A speed=3.02x    frame=20983 fps= 73 q=-0.0 size=N/A time=00:14:34.29 bitrate=N/A speed=3.02x    frame=21022 fps= 73 q=-0.0 size=N/A time=00:14:35.91 bitrate=N/A speed=3.02x    frame=21060 fps= 73 q=-0.0 size=N/A time=00:14:37.50 bitrate=N/A speed=3.02x    frame=21096 fps= 73 q=-0.0 size=N/A time=00:14:39.00 bitrate=N/A speed=3.02x    frame=21131 fps= 73 q=-0.0 size=N/A time=00:14:40.45 bitrate=N/A speed=3.02x    frame=21163 fps= 72 q=-0.0 size=N/A time=00:14:41.79 bitrate=N/A speed=3.02x    frame=21207 fps= 73 q=-0.0 size=N/A time=00:14:43.62 bitrate=N/A speed=3.02x    frame=21244 fps= 73 q=-0.0 size=N/A time=00:14:45.16 bitrate=N/A speed=3.02x    frame=21285 fps= 73 q=-0.0 size=N/A time=00:14:46.87 bitrate=N/A speed=3.02x    frame=21323 fps= 73 q=-0.0 size=N/A time=00:14:48.45 bitrate=N/A speed=3.02x    frame=21355 fps= 73 q=-0.0 size=N/A time=00:14:49.79 bitrate=N/A speed=3.02x    frame=21401 fps= 73 q=-0.0 size=N/A time=00:14:51.70 bitrate=N/A speed=3.02x    frame=21433 fps= 73 q=-0.0 size=N/A time=00:14:53.04 bitrate=N/A speed=3.02x    frame=21477 fps= 73 q=-0.0 size=N/A time=00:14:54.87 bitrate=N/A speed=3.02x    frame=21512 fps= 73 q=-0.0 size=N/A time=00:14:56.33 bitrate=N/A speed=3.02x    frame=21555 fps= 73 q=-0.0 size=N/A time=00:14:58.12 bitrate=N/A speed=3.02x    frame=21589 fps= 73 q=-0.0 size=N/A time=00:14:59.54 bitrate=N/A speed=3.02x    frame=21627 fps= 73 q=-0.0 size=N/A time=00:15:01.12 bitrate=N/A speed=3.02x    frame=21665 fps= 73 q=-0.0 size=N/A time=00:15:02.70 bitrate=N/A speed=3.02x    frame=21697 fps= 73 q=-0.0 size=N/A time=00:15:04.04 bitrate=N/A speed=3.02x    frame=21733 fps= 73 q=-0.0 size=N/A time=00:15:05.54 bitrate=N/A speed=3.02x    frame=21766 fps= 73 q=-0.0 size=N/A time=00:15:06.91 bitrate=N/A speed=3.02x    frame=21811 fps= 73 q=-0.0 size=N/A time=00:15:08.79 bitrate=N/A speed=3.02x    frame=21847 fps= 73 q=-0.0 size=N/A time=00:15:10.29 bitrate=N/A speed=3.02x    frame=21879 fps= 73 q=-0.0 size=N/A time=00:15:11.62 bitrate=N/A speed=3.02x    frame=21919 fps= 73 q=-0.0 size=N/A time=00:15:13.29 bitrate=N/A speed=3.02x    frame=21955 fps= 73 q=-0.0 size=N/A time=00:15:14.79 bitrate=N/A speed=3.02x    frame=21992 fps= 73 q=-0.0 size=N/A time=00:15:16.33 bitrate=N/A speed=3.02x    frame=22026 fps= 72 q=-0.0 size=N/A time=00:15:17.75 bitrate=N/A speed=3.02x    frame=22067 fps= 73 q=-0.0 size=N/A time=00:15:19.45 bitrate=N/A speed=3.02x    frame=22106 fps= 73 q=-0.0 size=N/A time=00:15:21.08 bitrate=N/A speed=3.02x    frame=22134 fps= 72 q=-0.0 size=N/A time=00:15:22.25 bitrate=N/A speed=3.02x    frame=22174 fps= 72 q=-0.0 size=N/A time=00:15:23.91 bitrate=N/A speed=3.02x    frame=22214 fps= 73 q=-0.0 size=N/A time=00:15:25.58 bitrate=N/A speed=3.02x    frame=22249 fps= 72 q=-0.0 size=N/A time=00:15:27.04 bitrate=N/A speed=3.02x    frame=22282 fps= 72 q=-0.0 size=N/A time=00:15:28.41 bitrate=N/A speed=3.02x    frame=22320 fps= 72 q=-0.0 size=N/A time=00:15:30.00 bitrate=N/A speed=3.02x    frame=22356 fps= 72 q=-0.0 size=N/A time=00:15:31.50 bitrate=N/A speed=3.02x    frame=22396 fps= 72 q=-0.0 size=N/A time=00:15:33.16 bitrate=N/A speed=3.02x    frame=22431 fps= 72 q=-0.0 size=N/A time=00:15:34.62 bitrate=N/A speed=3.02x    frame=22460 fps= 72 q=-0.0 size=N/A time=00:15:35.83 bitrate=N/A speed=3.02x    frame=22506 fps= 72 q=-0.0 size=N/A time=00:15:37.75 bitrate=N/A speed=3.02x    frame=22543 fps= 72 q=-0.0 size=N/A time=00:15:39.29 bitrate=N/A speed=3.02x    frame=22575 fps= 72 q=-0.0 size=N/A time=00:15:40.62 bitrate=N/A speed=3.02x    frame=22614 fps= 72 q=-0.0 size=N/A time=00:15:42.25 bitrate=N/A speed=3.02x    frame=22651 fps= 72 q=-0.0 size=N/A time=00:15:43.79 bitrate=N/A speed=3.02x    frame=22690 fps= 72 q=-0.0 size=N/A time=00:15:45.41 bitrate=N/A speed=3.02x    frame=22727 fps= 72 q=-0.0 size=N/A time=00:15:46.95 bitrate=N/A speed=3.02x    frame=22762 fps= 72 q=-0.0 size=N/A time=00:15:48.41 bitrate=N/A speed=3.02x    frame=22802 fps= 72 q=-0.0 size=N/A time=00:15:50.08 bitrate=N/A speed=3.02x    frame=22838 fps= 72 q=-0.0 size=N/A time=00:15:51.58 bitrate=N/A speed=3.02x    frame=22874 fps= 72 q=-0.0 size=N/A time=00:15:53.08 bitrate=N/A speed=3.02x    frame=22906 fps= 72 q=-0.0 size=N/A time=00:15:54.41 bitrate=N/A speed=3.02x    frame=22948 fps= 72 q=-0.0 size=N/A time=00:15:56.16 bitrate=N/A speed=3.02x    frame=22982 fps= 72 q=-0.0 size=N/A time=00:15:57.58 bitrate=N/A speed=3.02x    frame=23024 fps= 72 q=-0.0 size=N/A time=00:15:59.33 bitrate=N/A speed=3.02x    frame=23062 fps= 72 q=-0.0 size=N/A time=00:16:00.91 bitrate=N/A speed=3.02x    frame=23099 fps= 72 q=-0.0 size=N/A time=00:16:02.45 bitrate=N/A speed=3.02x    frame=23137 fps= 72 q=-0.0 size=N/A time=00:16:04.04 bitrate=N/A speed=3.02x    frame=23175 fps= 72 q=-0.0 size=N/A time=00:16:05.62 bitrate=N/A speed=3.02x    frame=23207 fps= 72 q=-0.0 size=N/A time=00:16:06.95 bitrate=N/A speed=3.02x    frame=23250 fps= 72 q=-0.0 size=N/A time=00:16:08.75 bitrate=N/A speed=3.02x    frame=23285 fps= 72 q=-0.0 size=N/A time=00:16:10.20 bitrate=N/A speed=3.02x    frame=23326 fps= 72 q=-0.0 size=N/A time=00:16:11.91 bitrate=N/A speed=3.02x    frame=23365 fps= 72 q=-0.0 size=N/A time=00:16:13.54 bitrate=N/A speed=3.02x    frame=23402 fps= 72 q=-0.0 size=N/A time=00:16:15.08 bitrate=N/A speed=3.02x    frame=23439 fps= 72 q=-0.0 size=N/A time=00:16:16.62 bitrate=N/A speed=3.02x    frame=23475 fps= 72 q=-0.0 size=N/A time=00:16:18.12 bitrate=N/A speed=3.02x    frame=23514 fps= 72 q=-0.0 size=N/A time=00:16:19.75 bitrate=N/A speed=3.02x    frame=23552 fps= 72 q=-0.0 size=N/A time=00:16:21.33 bitrate=N/A speed=3.02x    frame=23580 fps= 72 q=-0.0 size=N/A time=00:16:22.50 bitrate=N/A speed=3.02x    frame=23622 fps= 72 q=-0.0 size=N/A time=00:16:24.25 bitrate=N/A speed=3.02x    frame=23660 fps= 72 q=-0.0 size=N/A time=00:16:25.83 bitrate=N/A speed=3.02x    frame=23698 fps= 72 q=-0.0 size=N/A time=00:16:27.41 bitrate=N/A speed=3.02x    frame=23736 fps= 72 q=-0.0 size=N/A time=00:16:29.00 bitrate=N/A speed=3.02x    frame=23776 fps= 72 q=-0.0 size=N/A time=00:16:30.66 bitrate=N/A speed=3.02x    frame=23814 fps= 72 q=-0.0 size=N/A time=00:16:32.25 bitrate=N/A speed=3.02x    frame=23855 fps= 72 q=-0.0 size=N/A time=00:16:33.95 bitrate=N/A speed=3.02x    frame=23895 fps= 72 q=-0.0 size=N/A time=00:16:35.62 bitrate=N/A speed=3.02x    frame=23924 fps= 72 q=-0.0 size=N/A time=00:16:36.83 bitrate=N/A speed=3.02x    frame=23969 fps= 72 q=-0.0 size=N/A time=00:16:38.70 bitrate=N/A speed=3.02x    frame=24007 fps= 72 q=-0.0 size=N/A time=00:16:40.29 bitrate=N/A speed=3.02x    frame=24041 fps= 72 q=-0.0 size=N/A time=00:16:41.70 bitrate=N/A speed=3.02x    frame=24084 fps= 72 q=-0.0 size=N/A time=00:16:43.50 bitrate=N/A speed=3.02x    frame=24121 fps= 73 q=-0.0 size=N/A time=00:16:45.04 bitrate=N/A speed=3.02x    frame=24160 fps= 73 q=-0.0 size=N/A time=00:16:46.66 bitrate=N/A speed=3.02x    frame=24196 fps= 72 q=-0.0 size=N/A time=00:16:48.16 bitrate=N/A speed=3.02x    frame=24236 fps= 73 q=-0.0 size=N/A time=00:16:49.83 bitrate=N/A speed=3.02x    frame=24275 fps= 73 q=-0.0 size=N/A time=00:16:51.45 bitrate=N/A speed=3.02x    frame=24305 fps= 72 q=-0.0 size=N/A time=00:16:52.70 bitrate=N/A speed=3.02x    frame=24349 fps= 73 q=-0.0 size=N/A time=00:16:54.54 bitrate=N/A speed=3.02x    frame=24386 fps= 73 q=-0.0 size=N/A time=00:16:56.08 bitrate=N/A speed=3.02x    frame=24426 fps= 73 q=-0.0 size=N/A time=00:16:57.75 bitrate=N/A speed=3.02x    frame=24464 fps= 73 q=-0.0 size=N/A time=00:16:59.33 bitrate=N/A speed=3.02x    frame=24497 fps= 73 q=-0.0 size=N/A time=00:17:00.70 bitrate=N/A speed=3.02x    frame=24541 fps= 73 q=-0.0 size=N/A time=00:17:02.54 bitrate=N/A speed=3.02x    frame=24576 fps= 73 q=-0.0 size=N/A time=00:17:04.00 bitrate=N/A speed=3.02x    frame=24614 fps= 73 q=-0.0 size=N/A time=00:17:05.58 bitrate=N/A speed=3.02x    frame=24653 fps= 73 q=-0.0 size=N/A time=00:17:07.20 bitrate=N/A speed=3.02x    frame=24691 fps= 73 q=-0.0 size=N/A time=00:17:08.79 bitrate=N/A speed=3.02x    frame=24729 fps= 73 q=-0.0 size=N/A time=00:17:10.37 bitrate=N/A speed=3.02x    frame=24769 fps= 73 q=-0.0 size=N/A time=00:17:12.04 bitrate=N/A speed=3.02x    frame=24808 fps= 73 q=-0.0 size=N/A time=00:17:13.66 bitrate=N/A speed=3.02x    frame=24845 fps= 73 q=-0.0 size=N/A time=00:17:15.20 bitrate=N/A speed=3.02x    frame=24884 fps= 73 q=-0.0 size=N/A time=00:17:16.83 bitrate=N/A speed=3.02x    frame=24922 fps= 73 q=-0.0 size=N/A time=00:17:18.41 bitrate=N/A speed=3.02x    frame=24957 fps= 73 q=-0.0 size=N/A time=00:17:19.87 bitrate=N/A speed=3.02x    frame=24999 fps= 73 q=-0.0 size=N/A time=00:17:21.62 bitrate=N/A speed=3.02x    frame=25038 fps= 73 q=-0.0 size=N/A time=00:17:23.25 bitrate=N/A speed=3.02x    frame=25070 fps= 73 q=-0.0 size=N/A time=00:17:24.58 bitrate=N/A speed=3.02x    frame=25116 fps= 73 q=-0.0 size=N/A time=00:17:26.50 bitrate=N/A speed=3.02x    frame=25150 fps= 73 q=-0.0 size=N/A time=00:17:27.91 bitrate=N/A speed=3.02x    frame=25186 fps= 73 q=-0.0 size=N/A time=00:17:29.41 bitrate=N/A speed=3.02x    frame=25230 fps= 73 q=-0.0 size=N/A time=00:17:31.25 bitrate=N/A speed=3.02x    frame=25267 fps= 73 q=-0.0 size=N/A time=00:17:32.79 bitrate=N/A speed=3.02x    frame=25304 fps= 73 q=-0.0 size=N/A time=00:17:34.33 bitrate=N/A speed=3.02x    frame=25347 fps= 73 q=-0.0 size=N/A time=00:17:36.12 bitrate=N/A speed=3.02x    frame=25385 fps= 73 q=-0.0 size=N/A time=00:17:37.70 bitrate=N/A speed=3.02x    frame=25421 fps= 73 q=-0.0 size=N/A time=00:17:39.20 bitrate=N/A speed=3.02x    frame=25463 fps= 73 q=-0.0 size=N/A time=00:17:40.95 bitrate=N/A speed=3.02x    frame=25498 fps= 73 q=-0.0 size=N/A time=00:17:42.41 bitrate=N/A speed=3.02x    frame=25532 fps= 73 q=-0.0 size=N/A time=00:17:43.83 bitrate=N/A speed=3.02x    frame=25574 fps= 73 q=-0.0 size=N/A time=00:17:45.58 bitrate=N/A speed=3.02x    frame=25613 fps= 73 q=-0.0 size=N/A time=00:17:47.20 bitrate=N/A speed=3.02x    frame=25652 fps= 73 q=-0.0 size=N/A time=00:17:48.83 bitrate=N/A speed=3.03x    frame=25684 fps= 73 q=-0.0 size=N/A time=00:17:50.16 bitrate=N/A speed=3.02x    frame=25730 fps= 73 q=-0.0 size=N/A time=00:17:52.08 bitrate=N/A speed=3.03x    frame=25768 fps= 73 q=-0.0 size=N/A time=00:17:53.66 bitrate=N/A speed=3.03x    frame=25801 fps= 73 q=-0.0 size=N/A time=00:17:55.04 bitrate=N/A speed=3.02x    frame=25837 fps= 73 q=-0.0 size=N/A time=00:17:56.54 bitrate=N/A speed=3.02x    frame=25869 fps= 73 q=-0.0 size=N/A time=00:17:57.87 bitrate=N/A speed=3.02x    frame=25907 fps= 73 q=-0.0 size=N/A time=00:17:59.45 bitrate=N/A speed=3.02x    frame=25941 fps= 73 q=-0.0 size=N/A time=00:18:00.87 bitrate=N/A speed=3.02x    frame=25982 fps= 73 q=-0.0 size=N/A time=00:18:02.58 bitrate=N/A speed=3.02x    frame=26019 fps= 73 q=-0.0 size=N/A time=00:18:04.12 bitrate=N/A speed=3.02x    frame=26056 fps= 73 q=-0.0 size=N/A time=00:18:05.66 bitrate=N/A speed=3.02x    frame=26095 fps= 73 q=-0.0 size=N/A time=00:18:07.29 bitrate=N/A speed=3.02x    frame=26132 fps= 73 q=-0.0 size=N/A time=00:18:08.83 bitrate=N/A speed=3.02x    frame=26170 fps= 73 q=-0.0 size=N/A time=00:18:10.41 bitrate=N/A speed=3.02x    frame=26208 fps= 73 q=-0.0 size=N/A time=00:18:12.00 bitrate=N/A speed=3.02x    frame=26245 fps= 73 q=-0.0 size=N/A time=00:18:13.54 bitrate=N/A speed=3.02x    frame=26279 fps= 73 q=-0.0 size=N/A time=00:18:14.95 bitrate=N/A speed=3.02x    frame=26325 fps= 73 q=-0.0 size=N/A time=00:18:16.87 bitrate=N/A speed=3.02x    frame=26360 fps= 73 q=-0.0 size=N/A time=00:18:18.33 bitrate=N/A speed=3.02x    frame=26400 fps= 73 q=-0.0 size=N/A time=00:18:20.00 bitrate=N/A speed=3.02x    frame=26436 fps= 73 q=-0.0 size=N/A time=00:18:21.50 bitrate=N/A speed=3.02x    frame=26477 fps= 73 q=-0.0 size=N/A time=00:18:23.20 bitrate=N/A speed=3.03x    frame=26515 fps= 73 q=-0.0 size=N/A time=00:18:24.79 bitrate=N/A speed=3.03x    frame=26552 fps= 73 q=-0.0 size=N/A time=00:18:26.33 bitrate=N/A speed=3.03x    frame=26590 fps= 73 q=-0.0 size=N/A time=00:18:27.91 bitrate=N/A speed=3.03x    frame=26628 fps= 73 q=-0.0 size=N/A time=00:18:29.50 bitrate=N/A speed=3.03x    frame=26666 fps= 73 q=-0.0 size=N/A time=00:18:31.08 bitrate=N/A speed=3.03x    frame=26704 fps= 73 q=-0.0 size=N/A time=00:18:32.66 bitrate=N/A speed=3.03x    frame=26743 fps= 73 q=-0.0 size=N/A time=00:18:34.29 bitrate=N/A speed=3.03x    frame=26782 fps= 73 q=-0.0 size=N/A time=00:18:35.91 bitrate=N/A speed=3.03x    frame=26820 fps= 73 q=-0.0 size=N/A time=00:18:37.50 bitrate=N/A speed=3.03x    frame=26857 fps= 73 q=-0.0 size=N/A time=00:18:39.04 bitrate=N/A speed=3.03x    frame=26897 fps= 73 q=-0.0 size=N/A time=00:18:40.70 bitrate=N/A speed=3.03x    frame=26934 fps= 73 q=-0.0 size=N/A time=00:18:42.25 bitrate=N/A speed=3.03x    frame=26967 fps= 73 q=-0.0 size=N/A time=00:18:43.62 bitrate=N/A speed=3.03x    frame=27010 fps= 73 q=-0.0 size=N/A time=00:18:45.41 bitrate=N/A speed=3.03x    frame=27049 fps= 73 q=-0.0 size=N/A time=00:18:47.04 bitrate=N/A speed=3.03x    frame=27087 fps= 73 q=-0.0 size=N/A time=00:18:48.62 bitrate=N/A speed=3.03x    frame=27125 fps= 73 q=-0.0 size=N/A time=00:18:50.20 bitrate=N/A speed=3.03x    frame=27164 fps= 73 q=-0.0 size=N/A time=00:18:51.83 bitrate=N/A speed=3.03x    frame=27202 fps= 73 q=-0.0 size=N/A time=00:18:53.41 bitrate=N/A speed=3.03x    frame=27227 fps= 73 q=-0.0 size=N/A time=00:18:54.45 bitrate=N/A speed=3.03x    frame=27278 fps= 73 q=-0.0 size=N/A time=00:18:56.58 bitrate=N/A speed=3.03x    frame=27315 fps= 73 q=-0.0 size=N/A time=00:18:58.12 bitrate=N/A speed=3.03x    frame=27354 fps= 73 q=-0.0 size=N/A time=00:18:59.75 bitrate=N/A speed=3.03x    frame=27392 fps= 73 q=-0.0 size=N/A time=00:19:01.33 bitrate=N/A speed=3.03x    frame=27429 fps= 73 q=-0.0 size=N/A time=00:19:02.87 bitrate=N/A speed=3.03x    frame=27464 fps= 73 q=-0.0 size=N/A time=00:19:04.33 bitrate=N/A speed=3.03x    frame=27505 fps= 73 q=-0.0 size=N/A time=00:19:06.04 bitrate=N/A speed=3.03x    frame=27543 fps= 73 q=-0.0 size=N/A time=00:19:07.62 bitrate=N/A speed=3.03x    frame=27581 fps= 73 q=-0.0 size=N/A time=00:19:09.20 bitrate=N/A speed=3.03x    frame=27620 fps= 73 q=-0.0 size=N/A time=00:19:10.83 bitrate=N/A speed=3.03x    frame=27653 fps= 73 q=-0.0 size=N/A time=00:19:12.20 bitrate=N/A speed=3.03x    frame=27695 fps= 73 q=-0.0 size=N/A time=00:19:13.95 bitrate=N/A speed=3.03x    frame=27732 fps= 73 q=-0.0 size=N/A time=00:19:15.50 bitrate=N/A speed=3.03x    frame=27771 fps= 73 q=-0.0 size=N/A time=00:19:17.12 bitrate=N/A speed=3.03x    frame=27807 fps= 73 q=-0.0 size=N/A time=00:19:18.62 bitrate=N/A speed=3.03x    frame=27840 fps= 73 q=-0.0 size=N/A time=00:19:20.00 bitrate=N/A speed=3.03x    frame=27876 fps= 73 q=-0.0 size=N/A time=00:19:21.50 bitrate=N/A speed=3.03x    frame=27911 fps= 73 q=-0.0 size=N/A time=00:19:22.95 bitrate=N/A speed=3.03x    frame=27952 fps= 73 q=-0.0 size=N/A time=00:19:24.66 bitrate=N/A speed=3.03x    frame=27980 fps= 73 q=-0.0 size=N/A time=00:19:25.83 bitrate=N/A speed=3.03x    frame=28021 fps= 73 q=-0.0 size=N/A time=00:19:27.54 bitrate=N/A speed=3.03x    frame=28057 fps= 73 q=-0.0 size=N/A time=00:19:29.04 bitrate=N/A speed=3.03x    frame=28094 fps= 73 q=-0.0 size=N/A time=00:19:30.58 bitrate=N/A speed=3.03x    frame=28129 fps= 73 q=-0.0 size=N/A time=00:19:32.04 bitrate=N/A speed=3.03x    frame=28157 fps= 73 q=-0.0 size=N/A time=00:19:33.20 bitrate=N/A speed=3.02x    frame=28199 fps= 73 q=-0.0 size=N/A time=00:19:34.95 bitrate=N/A speed=3.03x    frame=28229 fps= 73 q=-0.0 size=N/A time=00:19:36.20 bitrate=N/A speed=3.02x    frame=28270 fps= 73 q=-0.0 size=N/A time=00:19:37.91 bitrate=N/A speed=3.02x    frame=28313 fps= 73 q=-0.0 size=N/A time=00:19:39.70 bitrate=N/A speed=3.03x    frame=28348 fps= 73 q=-0.0 size=N/A time=00:19:41.16 bitrate=N/A speed=3.02x    frame=28392 fps= 73 q=-0.0 size=N/A time=00:19:43.00 bitrate=N/A speed=3.03x    frame=28427 fps= 73 q=-0.0 size=N/A time=00:19:44.45 bitrate=N/A speed=3.03x    frame=28468 fps= 73 q=-0.0 size=N/A time=00:19:46.16 bitrate=N/A speed=3.03x    frame=28505 fps= 73 q=-0.0 size=N/A time=00:19:47.70 bitrate=N/A speed=3.03x    frame=28544 fps= 73 q=-0.0 size=N/A time=00:19:49.33 bitrate=N/A speed=3.03x    frame=28581 fps= 73 q=-0.0 size=N/A time=00:19:50.87 bitrate=N/A speed=3.03x    frame=28613 fps= 73 q=-0.0 size=N/A time=00:19:52.20 bitrate=N/A speed=3.03x    frame=28659 fps= 73 q=-0.0 size=N/A time=00:19:54.12 bitrate=N/A speed=3.03x    frame=28692 fps= 73 q=-0.0 size=N/A time=00:19:55.50 bitrate=N/A speed=3.03x    frame=28737 fps= 73 q=-0.0 size=N/A time=00:19:57.37 bitrate=N/A speed=3.03x    frame=28775 fps= 73 q=-0.0 size=N/A time=00:19:58.95 bitrate=N/A speed=3.03x    frame=28809 fps= 73 q=-0.0 size=N/A time=00:20:00.37 bitrate=N/A speed=3.03x    frame=28843 fps= 73 q=-0.0 size=N/A time=00:20:01.79 bitrate=N/A speed=3.03x    frame=28890 fps= 73 q=-0.0 size=N/A time=00:20:03.75 bitrate=N/A speed=3.03x    frame=28924 fps= 73 q=-0.0 size=N/A time=00:20:05.16 bitrate=N/A speed=3.03x    frame=28968 fps= 73 q=-0.0 size=N/A time=00:20:07.00 bitrate=N/A speed=3.03x    frame=29005 fps= 73 q=-0.0 size=N/A time=00:20:08.54 bitrate=N/A speed=3.03x    frame=29044 fps= 73 q=-0.0 size=N/A time=00:20:10.16 bitrate=N/A speed=3.03x    frame=29083 fps= 73 q=-0.0 size=N/A time=00:20:11.79 bitrate=N/A speed=3.03x    frame=29122 fps= 73 q=-0.0 size=N/A time=00:20:13.41 bitrate=N/A speed=3.03x    frame=29162 fps= 73 q=-0.0 size=N/A time=00:20:15.08 bitrate=N/A speed=3.03x    frame=29199 fps= 73 q=-0.0 size=N/A time=00:20:16.62 bitrate=N/A speed=3.03x    frame=29231 fps= 73 q=-0.0 size=N/A time=00:20:17.95 bitrate=N/A speed=3.03x    frame=29277 fps= 73 q=-0.0 size=N/A time=00:20:19.87 bitrate=N/A speed=3.03x    frame=29312 fps= 73 q=-0.0 size=N/A time=00:20:21.33 bitrate=N/A speed=3.03x    frame=29354 fps= 73 q=-0.0 size=N/A time=00:20:23.08 bitrate=N/A speed=3.03x    frame=29392 fps= 73 q=-0.0 size=N/A time=00:20:24.66 bitrate=N/A speed=3.03x    frame=29433 fps= 73 q=-0.0 size=N/A time=00:20:26.37 bitrate=N/A speed=3.03x    frame=29472 fps= 73 q=-0.0 size=N/A time=00:20:28.00 bitrate=N/A speed=3.03x    frame=29510 fps= 73 q=-0.0 size=N/A time=00:20:29.58 bitrate=N/A speed=3.03x    frame=29550 fps= 73 q=-0.0 size=N/A time=00:20:31.25 bitrate=N/A speed=3.03x    frame=29589 fps= 73 q=-0.0 size=N/A time=00:20:32.87 bitrate=N/A speed=3.03x    frame=29628 fps= 73 q=-0.0 size=N/A time=00:20:34.50 bitrate=N/A speed=3.03x    frame=29667 fps= 73 q=-0.0 size=N/A time=00:20:36.12 bitrate=N/A speed=3.03x    frame=29705 fps= 73 q=-0.0 size=N/A time=00:20:37.70 bitrate=N/A speed=3.03x    frame=29743 fps= 73 q=-0.0 size=N/A time=00:20:39.29 bitrate=N/A speed=3.03x    frame=29782 fps= 73 q=-0.0 size=N/A time=00:20:40.91 bitrate=N/A speed=3.03x    frame=29822 fps= 73 q=-0.0 size=N/A time=00:20:42.58 bitrate=N/A speed=3.03x    frame=29860 fps= 73 q=-0.0 size=N/A time=00:20:44.16 bitrate=N/A speed=3.03x    frame=29898 fps= 73 q=-0.0 size=N/A time=00:20:45.75 bitrate=N/A speed=3.03x    frame=29935 fps= 73 q=-0.0 size=N/A time=00:20:47.29 bitrate=N/A speed=3.03x    frame=29968 fps= 73 q=-0.0 size=N/A time=00:20:48.66 bitrate=N/A speed=3.03x    frame=30012 fps= 73 q=-0.0 size=N/A time=00:20:50.50 bitrate=N/A speed=3.03x    frame=30049 fps= 73 q=-0.0 size=N/A time=00:20:52.04 bitrate=N/A speed=3.03x    frame=30088 fps= 73 q=-0.0 size=N/A time=00:20:53.66 bitrate=N/A speed=3.03x    frame=30126 fps= 73 q=-0.0 size=N/A time=00:20:55.25 bitrate=N/A speed=3.03x    frame=30165 fps= 73 q=-0.0 size=N/A time=00:20:56.87 bitrate=N/A speed=3.03x    frame=30202 fps= 73 q=-0.0 size=N/A time=00:20:58.41 bitrate=N/A speed=3.03x    frame=30238 fps= 73 q=-0.0 size=N/A time=00:20:59.91 bitrate=N/A speed=3.03x    frame=30280 fps= 73 q=-0.0 size=N/A time=00:21:01.66 bitrate=N/A speed=3.03x    frame=30318 fps= 73 q=-0.0 size=N/A time=00:21:03.25 bitrate=N/A speed=3.03x    frame=30346 fps= 73 q=-0.0 size=N/A time=00:21:04.41 bitrate=N/A speed=3.03x    frame=30389 fps= 73 q=-0.0 size=N/A time=00:21:06.20 bitrate=N/A speed=3.03x    frame=30427 fps= 73 q=-0.0 size=N/A time=00:21:07.79 bitrate=N/A speed=3.03x    frame=30465 fps= 73 q=-0.0 size=N/A time=00:21:09.37 bitrate=N/A speed=3.03x    frame=30502 fps= 73 q=-0.0 size=N/A time=00:21:10.91 bitrate=N/A speed=3.03x    frame=30535 fps= 73 q=-0.0 size=N/A time=00:21:12.29 bitrate=N/A speed=3.03x    frame=30574 fps= 73 q=-0.0 size=N/A time=00:21:13.91 bitrate=N/A speed=3.03x    frame=30608 fps= 73 q=-0.0 size=N/A time=00:21:15.33 bitrate=N/A speed=3.03x    frame=30639 fps= 73 q=-0.0 size=N/A time=00:21:16.62 bitrate=N/A speed=3.03x    frame=30679 fps= 73 q=-0.0 size=N/A time=00:21:18.29 bitrate=N/A speed=3.03x    frame=30710 fps= 73 q=-0.0 size=N/A time=00:21:19.58 bitrate=N/A speed=3.03x    frame=30756 fps= 73 q=-0.0 size=N/A time=00:21:21.50 bitrate=N/A speed=3.03x    frame=30794 fps= 73 q=-0.0 size=N/A time=00:21:23.08 bitrate=N/A speed=3.03x    frame=30832 fps= 73 q=-0.0 size=N/A time=00:21:24.66 bitrate=N/A speed=3.03x    frame=30871 fps= 73 q=-0.0 size=N/A time=00:21:26.29 bitrate=N/A speed=3.03x    frame=30909 fps= 73 q=-0.0 size=N/A time=00:21:27.87 bitrate=N/A speed=3.03x    frame=30942 fps= 73 q=-0.0 size=N/A time=00:21:29.25 bitrate=N/A speed=3.03x    frame=30985 fps= 73 q=-0.0 size=N/A time=00:21:31.04 bitrate=N/A speed=3.03x    frame=31015 fps= 73 q=-0.0 size=N/A time=00:21:32.29 bitrate=N/A speed=3.03x    frame=31062 fps= 73 q=-0.0 size=N/A time=00:21:34.25 bitrate=N/A speed=3.03x    frame=31098 fps= 73 q=-0.0 size=N/A time=00:21:35.75 bitrate=N/A speed=3.03x    frame=31135 fps= 73 q=-0.0 size=N/A time=00:21:37.29 bitrate=N/A speed=3.03x    frame=31172 fps= 73 q=-0.0 size=N/A time=00:21:38.83 bitrate=N/A speed=3.03x    frame=31208 fps= 73 q=-0.0 size=N/A time=00:21:40.33 bitrate=N/A speed=3.03x    frame=31237 fps= 73 q=-0.0 size=N/A time=00:21:41.54 bitrate=N/A speed=3.03x    frame=31289 fps= 73 q=-0.0 size=N/A time=00:21:43.70 bitrate=N/A speed=3.03x    frame=31326 fps= 73 q=-0.0 size=N/A time=00:21:45.25 bitrate=N/A speed=3.03x    frame=31363 fps= 73 q=-0.0 size=N/A time=00:21:46.79 bitrate=N/A speed=3.03x    frame=31397 fps= 73 q=-0.0 size=N/A time=00:21:48.20 bitrate=N/A speed=3.03x    frame=31440 fps= 73 q=-0.0 size=N/A time=00:21:50.00 bitrate=N/A speed=3.03x    frame=31478 fps= 73 q=-0.0 size=N/A time=00:21:51.58 bitrate=N/A speed=3.03x    frame=31518 fps= 73 q=-0.0 size=N/A time=00:21:53.25 bitrate=N/A speed=3.03x    frame=31557 fps= 73 q=-0.0 size=N/A time=00:21:54.87 bitrate=N/A speed=3.03x    frame=31594 fps= 73 q=-0.0 size=N/A time=00:21:56.41 bitrate=N/A speed=3.03x    frame=31631 fps= 73 q=-0.0 size=N/A time=00:21:57.95 bitrate=N/A speed=3.03x    frame=31664 fps= 73 q=-0.0 size=N/A time=00:21:59.33 bitrate=N/A speed=3.03x    frame=31710 fps= 73 q=-0.0 size=N/A time=00:22:01.25 bitrate=N/A speed=3.03x    frame=31747 fps= 73 q=-0.0 size=N/A time=00:22:02.79 bitrate=N/A speed=3.03x    frame=31786 fps= 73 q=-0.0 size=N/A time=00:22:04.41 bitrate=N/A speed=3.03x    frame=31819 fps= 73 q=-0.0 size=N/A time=00:22:05.79 bitrate=N/A speed=3.03x    frame=31863 fps= 73 q=-0.0 size=N/A time=00:22:07.62 bitrate=N/A speed=3.03x    frame=31898 fps= 73 q=-0.0 size=N/A time=00:22:09.08 bitrate=N/A speed=3.03x    frame=31934 fps= 73 q=-0.0 size=N/A time=00:22:10.58 bitrate=N/A speed=3.03x    frame=31980 fps= 73 q=-0.0 size=N/A time=00:22:12.50 bitrate=N/A speed=3.03x    frame=32017 fps= 73 q=-0.0 size=N/A time=00:22:14.04 bitrate=N/A speed=3.03x    frame=32051 fps= 73 q=-0.0 size=N/A time=00:22:15.45 bitrate=N/A speed=3.03x    frame=32092 fps= 73 q=-0.0 size=N/A time=00:22:17.16 bitrate=N/A speed=3.03x    frame=32129 fps= 73 q=-0.0 size=N/A time=00:22:18.70 bitrate=N/A speed=3.03x    frame=32168 fps= 73 q=-0.0 size=N/A time=00:22:20.33 bitrate=N/A speed=3.03x    frame=32206 fps= 73 q=-0.0 size=N/A time=00:22:21.91 bitrate=N/A speed=3.03x    frame=32244 fps= 73 q=-0.0 size=N/A time=00:22:23.50 bitrate=N/A speed=3.03x    frame=32280 fps= 73 q=-0.0 size=N/A time=00:22:25.00 bitrate=N/A speed=3.03x    frame=32307 fps= 73 q=-0.0 size=N/A time=00:22:26.12 bitrate=N/A speed=3.03x    frame=32352 fps= 73 q=-0.0 size=N/A time=00:22:28.00 bitrate=N/A speed=3.03x    frame=32398 fps= 73 q=-0.0 size=N/A time=00:22:29.91 bitrate=N/A speed=3.03x    frame=32435 fps= 73 q=-0.0 size=N/A time=00:22:31.45 bitrate=N/A speed=3.03x    frame=32471 fps= 73 q=-0.0 size=N/A time=00:22:32.95 bitrate=N/A speed=3.03x    frame=32502 fps= 73 q=-0.0 size=N/A time=00:22:34.25 bitrate=N/A speed=3.03x    frame=32547 fps= 73 q=-0.0 size=N/A time=00:22:36.12 bitrate=N/A speed=3.03x    frame=32577 fps= 73 q=-0.0 size=N/A time=00:22:37.37 bitrate=N/A speed=3.03x    frame=32623 fps= 73 q=-0.0 size=N/A time=00:22:39.29 bitrate=N/A speed=3.03x    frame=32654 fps= 73 q=-0.0 size=N/A time=00:22:40.58 bitrate=N/A speed=3.03x    frame=32697 fps= 73 q=-0.0 size=N/A time=00:22:42.37 bitrate=N/A speed=3.03x    frame=32733 fps= 73 q=-0.0 size=N/A time=00:22:43.87 bitrate=N/A speed=3.03x    frame=32767 fps= 73 q=-0.0 size=N/A time=00:22:45.29 bitrate=N/A speed=3.03x    frame=32803 fps= 73 q=-0.0 size=N/A time=00:22:46.79 bitrate=N/A speed=3.03x    frame=32842 fps= 73 q=-0.0 size=N/A time=00:22:48.41 bitrate=N/A speed=3.03x    frame=32880 fps= 73 q=-0.0 size=N/A time=00:22:50.00 bitrate=N/A speed=3.03x    frame=32917 fps= 73 q=-0.0 size=N/A time=00:22:51.54 bitrate=N/A speed=3.03x    frame=32953 fps= 73 q=-0.0 size=N/A time=00:22:53.04 bitrate=N/A speed=3.03x    frame=32990 fps= 73 q=-0.0 size=N/A time=00:22:54.58 bitrate=N/A speed=3.03x    frame=33023 fps= 73 q=-0.0 size=N/A time=00:22:55.95 bitrate=N/A speed=3.03x    frame=33065 fps= 73 q=-0.0 size=N/A time=00:22:57.70 bitrate=N/A speed=3.03x    frame=33102 fps= 73 q=-0.0 size=N/A time=00:22:59.25 bitrate=N/A speed=3.03x    frame=33140 fps= 73 q=-0.0 size=N/A time=00:23:00.83 bitrate=N/A speed=3.03x    frame=33178 fps= 73 q=-0.0 size=N/A time=00:23:02.41 bitrate=N/A speed=3.03x    frame=33217 fps= 73 q=-0.0 size=N/A time=00:23:04.04 bitrate=N/A speed=3.03x    frame=33248 fps= 73 q=-0.0 size=N/A time=00:23:05.33 bitrate=N/A speed=3.03x    frame=33293 fps= 73 q=-0.0 size=N/A time=00:23:07.20 bitrate=N/A speed=3.03x    frame=33328 fps= 73 q=-0.0 size=N/A time=00:23:08.66 bitrate=N/A speed=3.03x    frame=33369 fps= 73 q=-0.0 size=N/A time=00:23:10.37 bitrate=N/A speed=3.03x    frame=33407 fps= 73 q=-0.0 size=N/A time=00:23:11.95 bitrate=N/A speed=3.03x    frame=33443 fps= 73 q=-0.0 size=N/A time=00:23:13.45 bitrate=N/A speed=3.03x    frame=33475 fps= 73 q=-0.0 size=N/A time=00:23:14.79 bitrate=N/A speed=3.03x    frame=33517 fps= 73 q=-0.0 size=N/A time=00:23:16.54 bitrate=N/A speed=3.03x    frame=33553 fps= 73 q=-0.0 size=N/A time=00:23:18.04 bitrate=N/A speed=3.03x    frame=33593 fps= 73 q=-0.0 size=N/A time=00:23:19.70 bitrate=N/A speed=3.03x    frame=33631 fps= 73 q=-0.0 size=N/A time=00:23:21.29 bitrate=N/A speed=3.03x    frame=33661 fps= 73 q=-0.0 size=N/A time=00:23:22.54 bitrate=N/A speed=3.03x    frame=33703 fps= 73 q=-0.0 size=N/A time=00:23:24.29 bitrate=N/A speed=3.03x    frame=33739 fps= 73 q=-0.0 size=N/A time=00:23:25.79 bitrate=N/A speed=3.03x    frame=33777 fps= 73 q=-0.0 size=N/A time=00:23:27.37 bitrate=N/A speed=3.03x    frame=33814 fps= 73 q=-0.0 size=N/A time=00:23:28.91 bitrate=N/A speed=3.03x    frame=33851 fps= 73 q=-0.0 size=N/A time=00:23:30.45 bitrate=N/A speed=3.03x    frame=33890 fps= 73 q=-0.0 size=N/A time=00:23:32.08 bitrate=N/A speed=3.03x    frame=33919 fps= 73 q=-0.0 size=N/A time=00:23:33.29 bitrate=N/A speed=3.03x    frame=33965 fps= 73 q=-0.0 size=N/A time=00:23:35.20 bitrate=N/A speed=3.03x    frame=33999 fps= 73 q=-0.0 size=N/A time=00:23:36.62 bitrate=N/A speed=3.03x    frame=34039 fps= 73 q=-0.0 size=N/A time=00:23:38.29 bitrate=N/A speed=3.03x    frame=34077 fps= 73 q=-0.0 size=N/A time=00:23:39.87 bitrate=N/A speed=3.03x    frame=34114 fps= 73 q=-0.0 size=N/A time=00:23:41.41 bitrate=N/A speed=3.03x    frame=34151 fps= 73 q=-0.0 size=N/A time=00:23:42.95 bitrate=N/A speed=3.03x    frame=34186 fps= 73 q=-0.0 size=N/A time=00:23:44.41 bitrate=N/A speed=3.03x    frame=34215 fps= 73 q=-0.0 size=N/A time=00:23:45.62 bitrate=N/A speed=3.03x    frame=34259 fps= 73 q=-0.0 size=N/A time=00:23:47.45 bitrate=N/A speed=3.03x    frame=34300 fps= 73 q=-0.0 size=N/A time=00:23:49.16 bitrate=N/A speed=3.03x    frame=34336 fps= 73 q=-0.0 size=N/A time=00:23:50.66 bitrate=N/A speed=3.03x    frame=34375 fps= 73 q=-0.0 size=N/A time=00:23:52.29 bitrate=N/A speed=3.03x    frame=34413 fps= 73 q=-0.0 size=N/A time=00:23:53.87 bitrate=N/A speed=3.03x    frame=34444 fps= 73 q=-0.0 size=N/A time=00:23:55.16 bitrate=N/A speed=3.03x    frame=34480 fps= 73 q=-0.0 size=N/A time=00:23:56.66 bitrate=N/A speed=3.03x    frame=34523 fps= 73 q=-0.0 size=N/A time=00:23:58.45 bitrate=N/A speed=3.03x    frame=34561 fps= 73 q=-0.0 size=N/A time=00:24:00.04 bitrate=N/A speed=3.03x    frame=34599 fps= 73 q=-0.0 size=N/A time=00:24:01.62 bitrate=N/A speed=3.03x    frame=34637 fps= 73 q=-0.0 size=N/A time=00:24:03.20 bitrate=N/A speed=3.03x    frame=34669 fps= 73 q=-0.0 size=N/A time=00:24:04.54 bitrate=N/A speed=3.03x    frame=34705 fps= 73 q=-0.0 size=N/A time=00:24:06.04 bitrate=N/A speed=3.03x    frame=34749 fps= 73 q=-0.0 size=N/A time=00:24:07.87 bitrate=N/A speed=3.03x    [Parsed_psnr_10 @ 000001ee9d48ae00] PSNR y:45.366628 u:49.767216 v:49.077882 average:46.346142 min:40.198507 max:96.687121
[out#0/null @ 000001ee8fb50440] video:14944KiB audio:271684KiB subtitle:0KiB other streams:0KiB global headers:0KiB muxing overhead: unknown
frame=34779 fps= 73 q=-0.0 Lsize=N/A time=00:24:09.04 bitrate=N/A speed=3.03x    
